<?xml version="1.0" standalone="no"?>
<!DOCTYPE svg PUBLIC "-//W3C//DTD SVG 1.1//EN" "http://www.w3.org/Graphics/SVG/1.1/DTD/svg11.dtd" >
<svg xmlns="http://www.w3.org/2000/svg">
<metadata></metadata>
<defs>
<font id="dream_orphanage_rgregular" horiz-adv-x="1001" >
<font-face units-per-em="2048" ascent="1638" descent="-410" />
<missing-glyph horiz-adv-x="595" />
<glyph unicode="&#x28;C&#x29;" horiz-adv-x="1529" d="M59 672q0 156 48.5 284.5t140.5 221t224 143.5t302 51q168 0 298 -51t218 -143.5t133 -221t45 -284.5q0 -158 -45 -287t-133 -221t-218 -142.5t-298 -50.5q-170 0 -302 54.5t-224 148.5t-140.5 222t-48.5 276zM154 672q0 -127 42 -237.5t121.5 -192.5t194.5 -129t262 -47 q145 0 258 44t188.5 123.5t114.5 191.5t39 247t-39 246.5t-114.5 190.5t-188 123t-258.5 44q-147 0 -262 -44t-194.5 -123t-121.5 -190.5t-42 -246.5zM516 651q0 225 63.5 336t208.5 111q90 0 136.5 -42t62.5 -98l-63 -36q-20 53 -49 78.5t-82 25.5q-37 0 -66 -16.5 t-47 -58.5t-27.5 -110.5t-9.5 -172.5q0 -90 8 -150.5t25.5 -96.5t43 -51.5t62.5 -15.5q104 0 138 113l57 -43q-31 -76 -79 -108.5t-153 -32.5q-115 0 -172 86t-57 282z" />
<glyph unicode="&#x28;R&#x29;" horiz-adv-x="1529" d="M59 672q0 156 48.5 284.5t140.5 221t224 143.5t302 51q168 0 298 -51t218 -143.5t133 -221t45 -284.5q0 -158 -45 -287t-133 -221t-218 -142.5t-298 -50.5q-170 0 -302 54.5t-224 148.5t-140.5 222t-48.5 276zM154 672q0 -127 42 -237.5t121.5 -192.5t194.5 -129t262 -47 q145 0 258 44t188.5 123.5t114.5 191.5t39 247t-39 246.5t-114.5 190.5t-188 123t-258.5 44q-147 0 -262 -44t-194.5 -123t-121.5 -190.5t-42 -246.5zM543 297v788h260q106 0 148 -48t42 -124q0 -55 -11 -93t-29.5 -62.5t-43 -37.5t-53.5 -20q63 -6 100 -40.5t37 -120.5 v-127q0 -39 9.5 -51.5t25.5 -16.5v-51q-4 -2 -17.5 -3t-41.5 -1q-96 0 -97 88v184q0 47 -32.5 76t-73.5 29h-102v-369h-121zM664 725h94q61 0 87.5 35t26.5 114q0 86 -21.5 115t-80.5 29h-106v-293z" />
<glyph horiz-adv-x="2048" />
<glyph horiz-adv-x="2048" />
<glyph unicode="&#xd;" horiz-adv-x="575" />
<glyph horiz-adv-x="595" />
<glyph unicode=" "  horiz-adv-x="595" />
<glyph unicode="&#x09;" horiz-adv-x="595" />
<glyph unicode="&#xa0;" horiz-adv-x="595" />
<glyph unicode="!" horiz-adv-x="598" d="M113 1491q0 33 18.5 53.5t46 31.5t60 15t61.5 4t60.5 -4t59 -15t46 -31.5t18.5 -53.5q0 -35 -14 -103.5t-27 -166.5q-27 -199 -47 -408t-30 -410h-132q-10 201 -30.5 410t-48.5 408q-14 98 -27.5 166.5t-13.5 103.5zM164 92q0 53 34.5 86t100.5 33q63 0 97 -33t34 -86 t-34 -85t-97 -32q-66 0 -100.5 33t-34.5 84z" />
<glyph unicode="&#x22;" horiz-adv-x="735" d="M78 1628h223l-45 -590h-133zM420 1628h223l-45 -590h-133z" />
<glyph unicode="#" horiz-adv-x="1024" d="M49 369v139h172l33 344h-186v139h198l33 352h137l-35 -352h283l35 352h135l-37 -352h156v-139h-168l-35 -344h184v-139h-196l-35 -369h-133l37 369h-285l-37 -369h-133l35 369h-158zM354 508h285l33 344h-285z" />
<glyph unicode="$" horiz-adv-x="915" d="M90 371l98 65q35 -66 96.5 -102.5t141.5 -36.5q78 0 132 38t54 109q0 57 -36.5 90t-92 56.5t-120 43t-120 50.5t-92 80t-36.5 129q0 66 23.5 114t63.5 80.5t91 51t108 24.5v180h150v-180q68 -10 127 -37.5t90 -87.5l-96 -71q-23 49 -74 71.5t-111 22.5q-31 0 -63.5 -8.5 t-58 -23.5t-43 -39.5t-17.5 -55.5q0 -59 38 -91t96.5 -52.5t125 -38t125 -48t96 -82t37.5 -139.5q0 -59 -21.5 -107t-58 -85t-86 -60.5t-106.5 -33.5v-197h-150v188q-100 4 -186 49.5t-125 133.5z" />
<glyph unicode="%" horiz-adv-x="1382" d="M57 1069q0 186 70 278.5t244 92.5q125 0 185.5 -85t60.5 -241q0 -201 -73 -288t-247 -87q-127 0 -183.5 77t-56.5 253zM102 -29l987 1401h142l-983 -1401h-146zM223 1085q0 -78 5.5 -127t17.5 -78.5t31.5 -41t48.5 -11.5q37 0 60.5 12.5t36.5 41t19.5 79t6.5 127.5 q0 78 -5.5 128.5t-17.5 80t-32.5 41.5t-51.5 12q-35 0 -58.5 -12t-36.5 -41.5t-18.5 -81t-5.5 -129.5zM768 295q0 186 70 278.5t244 92.5q125 0 185.5 -85t60.5 -241q0 -201 -73 -288t-247 -87q-127 0 -183.5 77t-56.5 253zM934 311q0 -78 5.5 -127t17.5 -78.5t31.5 -41 t48.5 -11.5q37 0 60.5 12.5t36.5 41t19.5 79t6.5 127.5q0 78 -5.5 128.5t-17.5 80t-32.5 41.5t-51.5 12q-35 0 -58.5 -12t-36.5 -41.5t-18.5 -81t-5.5 -129.5z" />
<glyph unicode="&#x26;" horiz-adv-x="1243" d="M41 416q0 82 14.5 152.5t48 126t91 95t141.5 62.5q-55 20 -94 55t-64.5 77t-37 90t-11.5 95q0 119 30.5 200t88 131t137.5 72.5t178 22.5q39 0 79 -4t77 -14t70.5 -30.5t58.5 -53.5l-62 -104q-39 55 -96 69.5t-110 14.5q-104 0 -165 -60.5t-61 -210.5q0 -147 58.5 -232 t167.5 -85h518v-127h-197v-494q0 -76 36 -125t114 -49q41 0 78.5 16.5t62.5 51.5l43 -109q-43 -37 -101.5 -57.5t-123.5 -20.5q-43 0 -83 7.5t-74 26t-60.5 50t-40.5 78.5q-20 -47 -54 -78.5t-75 -50t-86 -26t-91 -7.5q-217 0 -311 105.5t-94 339.5zM319 444 q0 -96 11.5 -161.5t36 -105.5t60.5 -57.5t85 -17.5q63 0 110.5 34t57.5 100v522h-107q-143 0 -198.5 -77t-55.5 -237z" />
<glyph unicode="'" horiz-adv-x="380" d="M78 1628h223l-45 -590h-133z" />
<glyph unicode="(" horiz-adv-x="704" d="M152 711q0 287 46 486.5t119.5 327.5t165.5 189.5t187 69.5l2 -68q-72 -12 -133.5 -68.5t-108.5 -175t-73.5 -305t-26.5 -456.5q0 -272 27.5 -458.5t74.5 -304.5t108.5 -174.5t131.5 -68.5l-2 -67q-94 8 -186.5 69.5t-166 188.5t-119.5 327.5t-46 487.5z" />
<glyph unicode=")" horiz-adv-x="704" d="M29 -295q72 12 135 68.5t109 175.5t73 305t27 457q0 270 -27 456.5t-73 305t-109.5 175t-134.5 68.5l6 68q94 -8 186 -69.5t165 -189.5t118 -328t45 -486q0 -287 -45 -487.5t-118 -327.5t-165 -188.5t-186 -69.5z" />
<glyph unicode="*" horiz-adv-x="862" d="M70 1276l49 129l256 -113l-27 277h158l-23 -279l265 107l40 -133l-274 -68l176 -217l-125 -86l-137 231l-154 -223l-118 90l182 205z" />
<glyph unicode="+" d="M90 608v135h342v342h135v-342h342v-135h-342v-342h-135v342h-342z" />
<glyph unicode="," horiz-adv-x="462" d="M90 98q14 61 57 87t93 26q59 0 95 -34t36 -89q0 -47 -21.5 -90t-55.5 -80t-77 -66t-88 -47q27 47 46.5 96.5t19.5 106.5q0 39 -22.5 64.5t-82.5 25.5z" />
<glyph unicode="-" horiz-adv-x="694" d="M63 625v131h566v-131h-566z" />
<glyph unicode="." horiz-adv-x="448" d="M90 92q0 53 35 86t100 33q66 0 99.5 -33t33.5 -86t-33.5 -86t-99.5 -33t-100.5 34t-34.5 85z" />
<glyph unicode="/" horiz-adv-x="704" d="M8 -172l541 1743h145l-542 -1743h-144z" />
<glyph unicode="0" horiz-adv-x="1243" d="M70 631q0 184 32.5 323.5t105.5 231.5t190.5 139t289.5 47q244 0 363.5 -169t119.5 -482q0 -201 -34.5 -342t-109.5 -232.5t-194.5 -133.5t-291.5 -42q-123 0 -212 37t-146.5 117t-85 205t-27.5 301zM342 657q0 -158 12.5 -262t41 -166.5t75.5 -88t117 -25.5 q88 0 147.5 27.5t96 92t52 173t15.5 270.5q0 156 -13.5 260t-44 167.5t-79.5 90.5t-119 27q-88 0 -145.5 -28t-92 -94.5t-49 -175t-14.5 -268.5z" />
<glyph unicode="1" horiz-adv-x="546" d="M25 1272l424 119v-1391h-230v1149q0 66 -65 55l-125 -14z" />
<glyph unicode="2" horiz-adv-x="1009" d="M8 0q139 121 263 244t227 256q39 51 75.5 108.5t66.5 117.5t47.5 123.5t17.5 125.5q0 111 -52.5 177.5t-169.5 66.5q-92 0 -179 -34t-136 -116l-86 102q33 55 81 94.5t105.5 63t121 33.5t130.5 10q193 0 302.5 -89t109.5 -290q0 -129 -52.5 -243.5t-137.5 -218 t-189 -195.5t-209 -176h604v-160h-940z" />
<glyph unicode="3" horiz-adv-x="962" d="M8 1219q82 92 182.5 122.5t217.5 30.5q201 0 303 -88t102 -248q0 -106 -56.5 -182t-160.5 -106q74 -10 128 -45t89 -84.5t52.5 -107.5t17.5 -114q0 -184 -65.5 -319t-172 -227.5t-240 -144.5t-270.5 -68l-37 120q119 27 217.5 77t168 126t107.5 178.5t38 231.5 q0 121 -52.5 198.5t-164.5 77.5q-53 0 -107 -20l-22 100q61 14 116.5 34.5t97.5 54.5t66.5 85t24.5 127q0 98 -56.5 152.5t-160.5 54.5q-78 0 -156 -27.5t-131 -93.5z" />
<glyph unicode="4" horiz-adv-x="997" d="M8 0l854 1427v-1304h109v-123h-109v-336h-239v336h-615zM221 123h402v696z" />
<glyph unicode="5" horiz-adv-x="833" d="M20 930l123 416h625v-175h-545l-43 -159q131 0 239.5 -40t184.5 -116t118 -183.5t42 -242.5q0 -168 -50 -304t-141.5 -235.5t-219.5 -158t-283 -70.5l-19 117q100 16 185.5 63t146.5 125t95 186.5t34 247.5q0 236 -113.5 370t-378.5 159z" />
<glyph unicode="6" horiz-adv-x="1138" d="M66 598q0 428 183 685t535 345l35 -94q-123 -37 -212 -111.5t-148.5 -172t-91 -211t-39.5 -228.5q66 78 153.5 115t186.5 37q203 0 312.5 -116t109.5 -353q0 -90 -30 -182.5t-93.5 -168t-160.5 -124t-233 -48.5q-145 0 -243.5 40t-156.5 118t-82.5 195.5t-24.5 273.5z M319 668q0 -156 16.5 -261.5t51.5 -171t88 -94t127 -28.5q61 0 106.5 23.5t76 65.5t45 96t14.5 116q0 201 -61.5 292t-217.5 91q-66 0 -132 -30t-114 -99z" />
<glyph unicode="7" horiz-adv-x="911" d="M25 1124v219h870l-543 -1679h-178l498 1460h-647z" />
<glyph unicode="8" horiz-adv-x="1181" d="M33 393q0 94 30.5 171t85 136.5t126 101.5t151.5 68q-63 18 -119.5 49t-98.5 77t-66.5 107.5t-24.5 139.5q0 172 114.5 278.5t358.5 106.5q213 0 328.5 -73.5t115.5 -231.5q0 -80 -21.5 -142.5t-59.5 -109.5t-90 -81t-113 -54q82 -23 153.5 -62.5t122.5 -98t81 -134.5 t30 -170q0 -113 -33 -205t-102.5 -157.5t-179 -101.5t-263.5 -36q-121 0 -218 27t-166 80t-105.5 132t-36.5 183zM213 428q0 -150 84 -231.5t240 -81.5q174 0 251.5 79.5t77.5 231.5q0 80 -25.5 142.5t-71.5 108.5t-107.5 78t-133.5 50q-63 -20 -120.5 -54t-100.5 -81 t-68.5 -107.5t-25.5 -134.5zM371 1296q0 -129 74.5 -205.5t193.5 -101.5q104 35 167.5 105.5t63.5 189.5q0 104 -60 164.5t-194 60.5q-121 0 -183 -57t-62 -156z" />
<glyph unicode="9" horiz-adv-x="1138" d="M49 850q0 88 30 181t93.5 169t160.5 124t232 48q145 0 242.5 -40t156 -117.5t83 -195.5t24.5 -274q0 -213 -49 -396t-144.5 -326.5t-232.5 -242.5t-311 -142l-33 94q123 37 215 114.5t155.5 181t98.5 224.5t43 244q-55 -68 -139 -112t-203 -44q-201 0 -311.5 136 t-110.5 374zM297 928q0 -203 62 -315.5t216 -112.5q90 0 149.5 42t96.5 101q0 158 -16.5 269.5t-51 182t-88 102.5t-128.5 32q-61 0 -106.5 -23.5t-75 -64.5t-44 -96.5t-14.5 -116.5z" />
<glyph unicode=":" horiz-adv-x="471" d="M100 92q0 53 35 86t101 33t99.5 -33t33.5 -86t-34 -86t-99 -33q-66 0 -101 34t-35 85zM100 987q0 53 35 86t101 33t99.5 -33t33.5 -86t-34 -85t-99 -32q-66 0 -101 33t-35 84z" />
<glyph unicode=";" horiz-adv-x="466" d="M84 98q16 61 58 87t91 26q59 0 95.5 -34t36.5 -89q0 -47 -21.5 -90t-55.5 -80t-77 -66t-88 -47q27 47 46 96.5t19 106.5q0 39 -22.5 64.5t-81.5 25.5zM98 987q0 53 35 86t98 33q66 0 100 -33t34 -86t-34 -85t-100 -32q-63 0 -98 33t-35 84z" />
<glyph unicode="&#x3c;" d="M90 602v150l819 393v-154l-653 -315l653 -314v-153z" />
<glyph unicode="=" d="M90 426v133h819v-133h-819zM90 797v133h819v-133h-819z" />
<glyph unicode="&#x3e;" d="M90 209v153l653 314l-653 315v154l819 -393v-150z" />
<glyph unicode="?" horiz-adv-x="858" d="M18 1432q66 70 164.5 116.5t235.5 46.5q184 0 290.5 -80.5t106.5 -261.5q0 -72 -19.5 -130t-52 -107t-76.5 -91t-94 -83q-33 -27 -68.5 -58.5t-66 -66.5t-50 -75t-19.5 -83t16 -82t43 -67l-129 -37q-55 39 -89 100.5t-34 132.5q0 80 31 138.5t77 105.5t99 89t99 87 t77 98.5t31 124.5q0 106 -58.5 155.5t-152.5 49.5q-78 0 -147.5 -38t-118.5 -99zM229 92q0 53 35 86t101 33t98.5 -33t32.5 -86t-33 -85t-98 -32q-66 0 -101 33t-35 84z" />
<glyph unicode="@" horiz-adv-x="1552" d="M59 516q0 242 64.5 410t177.5 274.5t266.5 154.5t329.5 48q281 0 436.5 -161t155.5 -460q0 -115 -18.5 -222t-61.5 -192t-113.5 -136.5t-177.5 -51.5q-51 0 -100 21.5t-84 60.5q-35 -39 -82 -61.5t-115 -22.5q-119 0 -171 94.5t-52 278.5q0 213 56.5 313.5t177.5 100.5 q61 0 101 -29t69 -72l8 94l118 -26v-641q37 -10 66 -10q72 0 119 37.5t75.5 100t40 145.5t11.5 173q0 143 -36 249t-103.5 175.5t-163 102t-213.5 32.5q-129 0 -238.5 -49t-189.5 -141t-125 -226.5t-45 -306.5q0 -158 34.5 -289.5t105.5 -227t177.5 -147.5t251.5 -52 q59 0 116.5 10t110.5 29l33 -95q-59 -29 -137 -44t-160 -15q-154 0 -285 44t-226 138t-149.5 240.5t-54.5 351.5zM666 586q0 -156 33.5 -227.5t105.5 -71.5q31 0 56.5 20.5t39.5 48.5v428q-14 33 -43 54.5t-65 21.5q-72 0 -99.5 -61.5t-27.5 -212.5z" />
<glyph unicode="A" horiz-adv-x="935" d="M18 0l357 1569h211l332 -1569h-261l-69 328h-357l-67 -328h-146zM254 459h311l-155 706z" />
<glyph unicode="B" horiz-adv-x="1064" d="M90 0v1569h512q102 0 173 -25.5t115 -73t63.5 -113t19.5 -143.5q0 -98 -15.5 -168.5t-46 -117.5t-75.5 -74t-103 -39q131 -6 208 -85t77 -236q0 -258 -101.5 -376t-324.5 -118h-502zM344 135h184q119 0 175.5 72t56.5 231q0 84 -9.5 141.5t-31 93.5t-58 51t-90.5 15h-227 v-604zM344 862h209q96 0 139 71t43 212q0 158 -40 220t-138 62h-213v-565z" />
<glyph unicode="C" horiz-adv-x="1034" d="M59 702q0 449 129 671t416 222q88 0 155.5 -23.5t116 -61t78 -88t45.5 -101.5l-127 -78q-43 104 -100 153.5t-160 49.5q-72 0 -125 -33t-90 -112.5t-55 -216t-18 -343.5q0 -180 16 -299.5t50 -192.5t85 -102.5t119 -29.5q106 0 167.5 55t94.5 166l123 -88 q-31 -74 -68 -127t-89 -87t-121.5 -49.5t-165.5 -15.5q-115 0 -204 41t-149.5 129t-91.5 227.5t-31 333.5z" />
<glyph unicode="D" horiz-adv-x="1101" d="M90 0v1569h512q115 0 197 -36t134 -117t76.5 -214t24.5 -325q0 -266 -23.5 -436.5t-82 -268.5t-156.5 -135t-246 -37h-436zM344 135h158q74 0 125 27.5t82.5 99.5t47 194t15.5 312q0 217 -13.5 347t-42 199.5t-76.5 91t-116 21.5h-180v-1292z" />
<glyph unicode="E" horiz-adv-x="931" d="M90 0v1569h799v-142h-545v-571h340v-139h-340v-582h545v-135h-799z" />
<glyph unicode="F" horiz-adv-x="909" d="M90 0v1569h797v-142h-543v-593h387v-140h-387v-694h-254z" />
<glyph unicode="G" horiz-adv-x="1091" d="M59 717q0 217 31 382t97.5 275.5t172 165.5t252.5 55q86 0 150.5 -23.5t113 -61t78 -88t45.5 -101.5l-129 -78q-35 94 -93 148.5t-156 54.5q-74 0 -130.5 -33t-95.5 -113.5t-58.5 -218t-19.5 -346.5q0 -184 14.5 -304t45.5 -189.5t80 -97t118 -27.5q119 0 166 66.5 t47 160.5v160q0 33 -16 45t-57 12h-107l15 109h391v-361q0 -96 14 -156.5t47 -107.5l-145 -65q-29 33 -45.5 71.5t-22.5 79.5q-10 -27 -36.5 -54.5t-67.5 -51t-95.5 -39t-121.5 -15.5q-123 0 -213 33t-149.5 117t-89.5 228.5t-30 367.5z" />
<glyph unicode="H" horiz-adv-x="1071" d="M90 0v1569h254v-695h383v695h254v-1569h-254v735h-383v-735h-254z" />
<glyph unicode="I" horiz-adv-x="452" d="M98 0v1569h254v-1569h-254z" />
<glyph unicode="J" horiz-adv-x="921" d="M25 309v140h141v-115q0 -115 46 -171.5t157 -56.5q117 0 167 56.5t50 185.5v1221h252v-1207q0 -391 -426 -391q-209 0 -298 90.5t-89 247.5z" />
<glyph unicode="K" horiz-adv-x="1069" d="M90 0v1569h254v-717l512 717h176l-356 -496l364 -1073h-272l-266 842l-158 -213v-629h-254z" />
<glyph unicode="L" horiz-adv-x="776" d="M90 0v1569h254v-1434h404v-135h-658z" />
<glyph unicode="M" horiz-adv-x="1323" d="M82 0v1569h309l273 -955l301 955h266v-1569h-250v1188l-375 -1217l-360 1227v-1198h-164z" />
<glyph unicode="N" horiz-adv-x="1050" d="M82 0v1569h213l514 -963v963h158v-1569h-90l-637 1137v-1137h-158z" />
<glyph unicode="O" horiz-adv-x="1140" d="M59 735q0 215 31 376t98.5 268.5t177 161.5t267.5 54q227 0 337.5 -196.5t110.5 -558.5q0 -231 -31.5 -395t-101 -269.5t-181 -155t-269.5 -49.5q-115 0 -198 43t-136 136.5t-79 237.5t-26 347zM330 768q0 -190 11 -315t35.5 -200t65 -105.5t99.5 -30.5q76 0 128 32.5 t82.5 110.5t44 207t13.5 324q0 186 -11.5 311t-38 201.5t-67.5 109.5t-100 33q-76 0 -126 -34t-81 -112.5t-43 -208.5t-12 -323z" />
<glyph unicode="P" horiz-adv-x="1017" d="M90 0v1569h492q111 0 188.5 -24.5t124.5 -74t68.5 -124t21.5 -175.5q0 -160 -22.5 -267t-75.5 -172.5t-140.5 -94.5t-216.5 -29h-186v-608h-254zM344 748h160q61 0 103 17t70 58t40 108.5t12 168.5q0 98 -10 161.5t-31.5 100.5t-56.5 51t-86 14h-201v-679z" />
<glyph unicode="Q" horiz-adv-x="1136" d="M59 776q0 199 31 351.5t98.5 257t177 157.5t267.5 53q227 0 337.5 -197.5t110.5 -572.5q0 -301 -57 -486t-186 -273q23 -57 76 -91t120 -34q20 0 40 5t36 13l14 -88q-31 -25 -73.5 -40t-83.5 -15q-104 0 -170 48t-101 132q-45 -10 -94 -17.5t-104 -7.5q-115 0 -198 44 t-136 140.5t-79 249t-26 371.5zM328 762q0 -190 11 -316.5t35.5 -201t66 -106.5t100.5 -32q76 0 127 33t82.5 112t45 209t13.5 324q0 186 -12.5 313.5t-38 205t-67.5 110.5t-101 33q-76 0 -126 -35t-81 -114.5t-43 -211t-12 -323.5z" />
<glyph unicode="R" horiz-adv-x="1071" d="M90 0v1569h518q106 0 180 -24.5t119 -69.5t64.5 -107.5t19.5 -136.5q0 -119 -23.5 -197t-63.5 -127t-95 -73.5t-119 -34.5q70 -4 125 -21.5t93 -54.5t57.5 -96.5t19.5 -147.5v-301q0 -39 9.5 -57.5t43.5 -20.5l15 -100q-10 -4 -39 -9t-72 -5q-106 0 -155.5 41t-49.5 131 v370q0 109 -57 153t-148 44h-188v-725h-254zM344 850h170q123 0 174 67.5t51 225.5q0 80 -9 134t-30.5 88t-60.5 48t-96 14h-199v-577z" />
<glyph unicode="S" horiz-adv-x="958" d="M12 248l131 84q27 -92 96.5 -145.5t174.5 -53.5q49 0 94 17.5t79 49t53 78t19 103.5q0 51 -14 90t-38.5 69.5t-58.5 56.5t-73 52q-88 57 -162.5 111.5t-130 116t-87.5 136t-32 177.5q0 88 28 161.5t82 128t132 85t178 30.5q131 0 225.5 -60t127.5 -169l-107 -84 q-23 76 -79 118t-134 42q-109 0 -169 -59.5t-60 -168.5q0 -90 46 -149t114.5 -107.5t149.5 -92.5t149.5 -102t114.5 -140t46 -205q0 -96 -32.5 -178t-94 -141.5t-150.5 -93.5t-202 -34q-145 0 -255 72t-161 205z" />
<glyph unicode="T" horiz-adv-x="970" d="M33 1219v350h903v-350h-94q0 106 -19.5 157t-48.5 51h-162v-1427h-254v1427h-163q-29 0 -48.5 -51t-19.5 -157h-94z" />
<glyph unicode="U" horiz-adv-x="974" d="M82 332v1237h254v-1239q0 -117 47 -165t152 -48q43 0 77.5 10t60 34.5t40 66.5t14.5 108v1233h164v-1219q0 -111 -26.5 -184.5t-78 -116.5t-124 -60.5t-166.5 -17.5q-113 0 -192 21.5t-128 65.5t-71.5 113t-22.5 161z" />
<glyph unicode="V" horiz-adv-x="897" d="M18 1569h256l230 -1112l233 1112h140l-349 -1569h-182z" />
<glyph unicode="W" horiz-adv-x="1445" d="M18 1569h244l215 -1127l178 836l-63 291h242l233 -1127l219 1127h139l-315 -1569h-178l-211 971l-213 -971h-178z" />
<glyph unicode="X" horiz-adv-x="940" d="M14 0l346 786l-335 783h251l230 -565l246 565h137l-309 -723l344 -846h-248l-252 627l-268 -627h-142z" />
<glyph unicode="Y" horiz-adv-x="913" d="M14 1569h250l240 -602l260 602h131l-317 -733v-836h-250v809z" />
<glyph unicode="Z" horiz-adv-x="958" d="M20 0l562 1427h-514v142h815l-547 -1434h555v-135h-871z" />
<glyph unicode="[" horiz-adv-x="550" d="M152 -336v2095h368v-96h-217v-1905h217v-94h-368z" />
<glyph unicode="\" horiz-adv-x="704" d="M8 1571h146l540 -1743h-141z" />
<glyph unicode="]" horiz-adv-x="550" d="M29 -242h217v1905h-217v96h368v-2095h-368v94z" />
<glyph unicode="^" horiz-adv-x="878" d="M90 977l275 592h149l272 -592h-153l-195 424l-190 -424h-158z" />
<glyph unicode="_" horiz-adv-x="759" d="M90 -139h578v-129h-578v129z" />
<glyph unicode="`" horiz-adv-x="669" d="M90 1716h250l238 -344h-164z" />
<glyph unicode="a" d="M41 324q0 166 65.5 254t202.5 135q45 16 95.5 25.5t98.5 18.5t92 22.5t75 35.5v129q0 100 -41 151.5t-156 51.5q-86 0 -148.5 -38t-101.5 -122l-119 90q59 115 163 165t225 50q86 0 162.5 -13t133 -51t89 -106.5t32.5 -179.5v-752q0 -51 9.5 -100t39.5 -90h-225 q-23 31 -32 70t-11 82q-41 -84 -123 -132.5t-192 -48.5q-168 0 -251 93.5t-83 259.5zM276 360q0 -123 44.5 -179t138.5 -56q72 0 127 37t86 102v438q-41 -23 -96.5 -36t-106.5 -29q-102 -33 -147.5 -100.5t-45.5 -176.5z" />
<glyph unicode="b" horiz-adv-x="1064" d="M90 0v1569l242 59v-495q47 72 122.5 115.5t168.5 43.5q98 0 170.5 -43t118.5 -122.5t69 -192.5t23 -254q0 -360 -100.5 -534.5t-301.5 -174.5q-106 0 -181 51.5t-118 127.5l-8 -150h-205zM332 274q23 -53 75 -95t121 -42q121 0 173.5 112.5t52.5 371.5q0 246 -58.5 370.5 t-175.5 124.5q-59 0 -109.5 -34.5t-78.5 -96.5v-711z" />
<glyph unicode="c" horiz-adv-x="942" d="M59 522q0 176 28 318.5t88.5 243t156.5 154.5t231 54q76 0 134.5 -18.5t100.5 -49t68.5 -71.5t38.5 -86l-123 -66q-59 156 -204 156q-135 0 -198 -148.5t-63 -441.5q0 -244 54.5 -352.5t183.5 -108.5q86 0 136 45.5t79 116.5l117 -69q-20 -47 -51 -88t-77 -72 t-110.5 -49.5t-152.5 -18.5q-225 0 -331 141.5t-106 409.5z" />
<glyph unicode="d" horiz-adv-x="1095" d="M90 565q0 352 97.5 539.5t289.5 187.5q96 0 170 -48t117 -109v434l240 59v-1628h-203l-6 150q-49 -82 -125 -130.5t-181 -48.5q-201 0 -300 144.5t-99 449.5zM344 649q0 -117 12.5 -212t40 -161.5t71.5 -102.5t105 -36q59 0 110.5 34t80.5 97v709q-20 55 -73.5 97 t-123.5 42q-123 0 -173 -110.5t-50 -356.5z" />
<glyph unicode="e" horiz-adv-x="1038" d="M59 530q0 201 40 345.5t107.5 236.5t156 136t184.5 44q129 0 213 -35.5t133 -113.5t68.5 -203t19.5 -303h-676q0 -254 56.5 -390t199.5 -136q100 0 153.5 38.5t82.5 108.5l108 -78q-18 -43 -47 -81t-73 -66.5t-108.5 -45t-156.5 -16.5q-244 0 -352.5 140.5t-108.5 418.5z M309 752h447q-2 113 -14.5 190.5t-38 124.5t-64.5 67.5t-90 20.5q-43 0 -82 -19.5t-72 -66.5t-55.5 -125t-30.5 -192z" />
<glyph unicode="f" horiz-adv-x="673" d="M20 1137v127h109q0 113 34 184.5t89 111t127 54t149 14.5q55 0 112.5 -13t86.5 -42l-45 -109q-57 47 -145 47q-78 0 -121 -55t-45 -192h260v-127h-260v-1137h-242v1137h-109z" />
<glyph unicode="g" horiz-adv-x="1067" d="M20 -109q0 111 83 169.5t237 82.5q-72 10 -116 24.5t-68.5 32t-32.5 37t-8 42.5q0 76 112 98q-82 51 -118.5 151.5t-36.5 247.5q0 100 19.5 193.5t69.5 165t139 114.5t230 43q86 0 148.5 -18.5t109.5 -52.5q59 25 85 90t26 131l123 -41q0 -33 -8 -72t-26.5 -75.5 t-48.5 -67.5t-73 -45q41 -70 58.5 -145.5t17.5 -166.5q0 -98 -18.5 -190t-70.5 -162.5t-145.5 -112.5t-240.5 -42q-39 0 -73 3t-62 13q-49 -10 -49 -51q0 -43 72.5 -65t205.5 -32q137 -10 232.5 -23t154 -35.5t84 -60.5t25.5 -100q0 -90 -57.5 -153.5t-150.5 -103.5 t-211 -58t-237 -18q-109 0 -181.5 20t-117.5 55t-63.5 81t-18.5 97zM246 -68q0 -59 50 -102t167 -43q104 0 176 13.5t117 37t65.5 55t20.5 68.5q0 33 -12.5 54.5t-47 38t-98 28.5t-168.5 24q-143 -20 -206.5 -62t-63.5 -112zM303 807q0 -178 46 -268t159 -90q61 0 101 23.5 t63.5 68.5t32 109.5t8.5 148.5q0 182 -47.5 273t-159.5 91q-61 0 -100 -23.5t-61.5 -69.5t-32 -112.5t-9.5 -150.5z" />
<glyph unicode="h" horiz-adv-x="1058" d="M90 0v1569l242 59v-491q47 61 139 108t215 47q147 0 219 -78.5t72 -244.5v-969h-242v950q0 96 -42 131t-132 35q-74 0 -137.5 -34.5t-91.5 -77.5v-1004h-242z" />
<glyph unicode="i" horiz-adv-x="438" d="M92 1522q0 53 35 84.5t100 31.5q63 0 97 -31.5t34 -84.5t-33.5 -85t-97.5 -32q-66 0 -100.5 32.5t-34.5 84.5zM100 0v1223l242 59v-1282h-242z" />
<glyph unicode="j" horiz-adv-x="489" d="M-158 -209q92 0 151.5 19.5t94.5 55.5t49.5 88t14.5 118v1151l239 59v-1139q0 -109 -21.5 -196.5t-79 -151t-154.5 -97.5t-251 -34zM141 1522q0 53 35 84.5t98 31.5t97.5 -31.5t34.5 -84.5t-34 -85t-98 -32q-63 0 -98 32.5t-35 84.5z" />
<glyph unicode="k" horiz-adv-x="995" d="M90 0v1569l246 59v-940l481 576h148l-289 -355l293 -909h-256l-217 698l-160 -184v-514h-246z" />
<glyph unicode="l" horiz-adv-x="423" d="M90 0v1569l242 59v-1628h-242z" />
<glyph unicode="m" horiz-adv-x="1601" d="M90 0v1223l238 59v-145q47 70 132 109.5t195 39.5q195 0 246 -174q59 80 146.5 130t201.5 50q137 0 203 -78.5t66 -244.5v-969h-236v950q0 96 -38 131t-118 35q-68 0 -123 -37t-79 -75v-1004h-238v950q0 96 -38 131t-120 35q-66 0 -121 -34.5t-79 -77.5v-1004h-238z" />
<glyph unicode="n" horiz-adv-x="1058" d="M90 0v1223l242 59v-145q47 61 139 108t215 47q147 0 219 -78.5t72 -244.5v-969h-242v950q0 96 -42 131t-132 35q-74 0 -137.5 -34.5t-91.5 -77.5v-1004h-242z" />
<glyph unicode="o" horiz-adv-x="1056" d="M59 600q0 135 20.5 260t78 221.5t159 153.5t263.5 57q213 0 314 -147.5t101 -480.5q0 -135 -20.5 -260t-77.5 -221.5t-157.5 -154t-262.5 -57.5q-215 0 -316.5 147.5t-101.5 481.5zM307 643q0 -143 13.5 -244.5t40 -166t66.5 -95.5t93 -31q70 0 115 34t70.5 99.5t35 160 t9.5 216.5q0 287 -52.5 414t-162.5 127q-70 0 -114 -35t-69.5 -100.5t-35 -160.5t-9.5 -218z" />
<glyph unicode="p" horiz-adv-x="1064" d="M90 -336v1577l197 41l16 -172q49 86 124 134t179 48q201 0 299.5 -145.5t98.5 -450.5q0 -352 -96.5 -538.5t-289.5 -186.5q-94 0 -168.5 47.5t-117.5 108.5v-463h-242zM332 283q23 -53 75 -94.5t121 -41.5q121 0 173.5 110t52.5 355q0 236 -57.5 374t-176.5 138 q-59 0 -109.5 -34.5t-78.5 -96.5v-710z" />
<glyph unicode="q" horiz-adv-x="1067" d="M59 584q0 360 100.5 534t305.5 174q104 0 178 -53t121 -127l14 170l197 -41v-1577h-242v465q-47 -72 -122.5 -115t-168.5 -43q-98 0 -170.5 43t-120 123t-70 192.5t-22.5 254.5zM313 643q0 -496 230 -496q61 0 112.5 34t77.5 98v706q-20 55 -73.5 97t-122.5 42 q-123 0 -173.5 -112.5t-50.5 -368.5z" />
<glyph unicode="r" horiz-adv-x="835" d="M90 0v1223l242 59v-166q41 86 126 129t183 43q59 0 114.5 -18.5t94.5 -67.5l-137 -184q-39 59 -75 79.5t-91 20.5q-78 0 -135.5 -41t-79.5 -116v-961h-242z" />
<glyph unicode="s" horiz-adv-x="903" d="M23 213l112 90q37 -86 104.5 -135t161.5 -49q98 0 146.5 51t48.5 131q0 55 -16.5 93t-42 64.5t-59.5 44t-68 32.5q-78 31 -142.5 66.5t-111.5 80.5t-74 103.5t-27 136.5q0 92 30 161.5t83 115.5t126 69.5t159 23.5q104 0 195 -37.5t134 -140.5l-108 -94q-25 66 -79 97.5 t-124 31.5q-41 0 -79 -10.5t-66.5 -32t-45 -54t-16.5 -79.5q0 -78 43 -121t107.5 -71.5t139.5 -54.5t139.5 -69t107.5 -112.5t43 -188.5q0 -90 -32 -161.5t-87 -120.5t-132 -76t-165 -27q-147 0 -251.5 59.5t-153.5 182.5z" />
<glyph unicode="t" horiz-adv-x="727" d="M20 1137v125q55 0 91 14t57.5 45t33 79t17.5 116l137 28v-280h246v-127h-246v-805q0 -104 42 -162.5t134 -58.5q63 0 98.5 15t61.5 44l33 -115q-57 -45 -117.5 -64.5t-158.5 -19.5q-156 0 -244 95.5t-88 265.5v805h-97z" />
<glyph unicode="u" horiz-adv-x="1058" d="M82 291v932l242 59v-969q0 -98 42 -132t132 -34q74 0 137 35t92 78v963l242 59v-1282h-205l-6 143q-23 -31 -57.5 -61.5t-81 -55t-102.5 -40t-124 -15.5q-164 0 -237.5 77t-73.5 243z" />
<glyph unicode="v" horiz-adv-x="913" d="M18 1264h271l225 -856l242 856h137l-367 -1264h-145z" />
<glyph unicode="w" horiz-adv-x="1470" d="M18 1264h261l217 -865l174 602l-76 263h260l231 -865l232 865h131l-350 -1264h-144l-223 786l-223 -786h-139z" />
<glyph unicode="x" horiz-adv-x="987" d="M18 0l363 629l-346 635h252l243 -457l256 457h148l-336 -580l369 -684h-252l-266 504l-285 -504h-146z" />
<glyph unicode="y" horiz-adv-x="913" d="M18 1264h256l234 -869l248 869h137l-322 -1114q-31 -109 -72.5 -199t-97 -153.5t-127 -98.5t-163.5 -35l-45 123q102 4 187 68.5t120 181.5z" />
<glyph unicode="z" horiz-adv-x="907" d="M27 0l544 1128h-479v136h778l-530 -1131h504v-133h-817z" />
<glyph unicode="{" horiz-adv-x="647" d="M94 674v74q109 10 162 68t53 188q0 51 -8 100t-18.5 96t-18.5 93t-8 91q0 180 89 274.5t263 127.5l8 -74q-117 -25 -168 -86t-51 -168q0 -49 10.5 -98t21.5 -98.5t21.5 -100.5t10.5 -104q0 -111 -53.5 -206t-182.5 -140q129 -47 182.5 -141.5t53.5 -204.5 q0 -53 -10.5 -104.5t-21.5 -100.5t-21.5 -97.5t-10.5 -97.5q0 -106 51.5 -168.5t167.5 -85.5l-8 -73q-174 31 -263 125t-89 276q0 45 8 90t18.5 93t18.5 96.5t8 99.5q0 127 -53 185.5t-162 70.5z" />
<glyph unicode="|" horiz-adv-x="524" d="M180 -317v2060h160v-2060h-160z" />
<glyph unicode="}" horiz-adv-x="645" d="M29 -289q117 23 169 85.5t52 168.5q0 49 -10.5 97.5t-21.5 97.5t-21.5 100t-10.5 105q0 111 52.5 205t181.5 141q-127 45 -180.5 140t-53.5 206q0 53 10.5 104t21.5 100.5t21.5 98.5t10.5 98q0 106 -52.5 168t-168.5 86l10 74q172 -33 261 -127t89 -275q0 -45 -8 -91 t-17.5 -93t-17.5 -96t-8 -100q0 -129 53 -187.5t160 -68.5v-74q-106 -12 -159.5 -70.5t-53.5 -185.5q0 -51 8 -99.5t17.5 -96.5t17.5 -93t8 -90q0 -182 -89 -276.5t-261 -124.5z" />
<glyph unicode="~" horiz-adv-x="1003" d="M90 584q8 117 69.5 174t162.5 57q88 0 137 -25.5t86 -57.5t70.5 -57.5t91.5 -25.5q51 0 75.5 24.5t34.5 100.5h94q-8 -115 -70.5 -173t-162.5 -58q-86 0 -136 26.5t-86 57t-70 57.5t-89 27q-53 0 -77.5 -24.5t-35.5 -102.5h-94z" />
<glyph unicode="&#xa1;" horiz-adv-x="598" d="M113 80q0 35 14 103.5t27 166.5q27 199 47 408t30 410h132q10 -201 30.5 -410t48.5 -408q14 -98 27.5 -166.5t13.5 -103.5q0 -33 -18.5 -53.5t-46 -31.5t-60 -15t-61.5 -4t-60.5 4t-59 15t-46 31.5t-18.5 53.5zM166 1479q0 53 34 85t97 32q66 0 100.5 -33t34.5 -84 q0 -53 -34.5 -86t-100.5 -33q-63 0 -97 33t-34 86z" />
<glyph unicode="&#xa2;" horiz-adv-x="851" d="M59 598q0 227 79 374.5t257 182.5v188h150v-178q117 -4 184.5 -54t87.5 -107l-112 -52q-55 115 -183 115q-119 0 -174 -109.5t-55 -324.5q0 -180 48 -261t167 -81q129 0 188 123l103 -54q-35 -66 -95.5 -108.5t-158.5 -54.5v-197h-150v193q-336 41 -336 405z" />
<glyph unicode="&#xa3;" horiz-adv-x="1026" d="M57 59q109 45 149 109.5t46 142.5q0 57 -5 107.5t-22 97.5h-151v98h121l-33 72q-27 57 -48.5 118.5t-19.5 133.5q0 117 42 199t114 134t166 76.5t196 24.5q57 0 114.5 -11t108 -36t90.5 -64.5t64 -99.5l-96 -82q-45 84 -116.5 123t-160.5 39q-131 0 -197.5 -70.5 t-66.5 -191.5q0 -53 12.5 -99t30 -90.5t38 -87.5t36.5 -88h422v-98h-402q6 -16 13.5 -38.5t7.5 -61.5q0 -31 -13.5 -66t-41 -69.5t-68.5 -67.5t-98 -59q37 10 73.5 14t71.5 4q47 0 88 -7t80 -16.5t76 -16.5t78 -7q141 0 211 115v-168q-41 -53 -106.5 -76t-143.5 -23 q-51 0 -96.5 7.5t-88.5 16.5t-87 17.5t-93 8.5q-63 0 -125.5 -12.5t-132.5 -35.5z" />
<glyph unicode="&#xa4;" horiz-adv-x="1130" d="M90 295l143 137q-84 102 -83 248q0 70 21.5 132t59.5 116l-139 131l94 92l131 -139q53 41 116 63.5t134 22.5q70 0 132.5 -22.5t115.5 -63.5l131 139l90 -92l-137 -131q86 -104 86 -248q0 -72 -22.5 -135.5t-63.5 -112.5l137 -137l-88 -92l-135 143q-106 -82 -246 -82 q-143 0 -248 82l-135 -143zM270 680q0 -61 23.5 -115.5t63.5 -94.5t94.5 -62.5t115.5 -22.5t114.5 22.5t93.5 62.5t63.5 94.5t23.5 115.5t-23.5 114.5t-63.5 93.5t-93 63.5t-115 23.5q-61 0 -115.5 -23.5t-94.5 -63.5t-63.5 -93.5t-23.5 -114.5z" />
<glyph unicode="&#xa5;" horiz-adv-x="948" d="M47 1372h244l231 -549l248 549h129l-270 -584h258v-135h-293v-219h293v-135h-293v-299h-244v299h-276v135h276v219h-276v135h235z" />
<glyph unicode="&#xa6;" horiz-adv-x="524" d="M180 -317v872h160v-872h-160zM180 870v873h160v-873h-160z" />
<glyph unicode="&#xa7;" d="M72 610q0 125 68.5 210t193.5 120q-106 53 -161.5 131t-55.5 195q0 147 102.5 238t280.5 91q100 0 166.5 -42t97.5 -101l-80 -82q-27 47 -70 76t-102 29q-98 0 -149.5 -53.5t-51.5 -133.5q0 -72 35 -121t90.5 -84.5t123 -61.5t132.5 -50q49 -18 95.5 -44t81 -64t55 -93 t20.5 -131q0 -117 -65.5 -206t-190.5 -130q41 -18 80 -44t68.5 -62.5t47 -88t17.5 -120.5q0 -82 -31.5 -146.5t-88 -109.5t-133.5 -69.5t-167 -24.5q-119 0 -203.5 48t-132.5 126l105 82q25 -53 80 -91.5t133 -38.5q98 0 161.5 56.5t63.5 146.5q0 51 -22.5 89t-58.5 67 t-82 48t-95 36q-92 33 -158.5 70.5t-111.5 86t-66.5 108.5t-21.5 138zM268 635q0 -109 67.5 -163t166.5 -77q117 10 172 70.5t55 144.5q0 104 -63.5 161.5t-165.5 82.5q-121 -12 -176.5 -73.5t-55.5 -145.5z" />
<glyph unicode="&#xa8;" horiz-adv-x="940" d="M90 1522q0 53 35 84.5t100 31.5q66 0 99.5 -31.5t33.5 -84.5t-33.5 -85t-99.5 -32t-100.5 32.5t-34.5 84.5zM582 1522q0 53 34.5 84.5t100.5 31.5q63 0 97 -31.5t34 -84.5t-34 -85t-97 -32q-66 0 -100.5 32.5t-34.5 84.5z" />
<glyph unicode="&#xaa;" horiz-adv-x="677" d="M82 793q0 98 40 146t126 77q41 12 85 18t73 29v72q0 47 -19.5 70.5t-71.5 23.5q-84 0 -118 -82l-80 59q35 66 92 92.5t125 26.5q49 0 91 -7t73.5 -27.5t50 -58.5t18.5 -99v-414q0 -29 5.5 -55.5t23.5 -49.5h-150q-12 14 -16 33t-8 39q-23 -45 -66 -66.5t-96 -21.5 q-88 0 -133 51t-45 144zM240 819q0 -63 20.5 -90t61.5 -27q53 0 84 48v239q-16 -10 -39 -17t-45 -16q-45 -18 -63.5 -54t-18.5 -83z" />
<glyph unicode="&#xab;" horiz-adv-x="892" d="M63 641v168l318 291v-168l-221 -207l221 -211v-164zM509 641v168l318 291v-168l-221 -207l221 -211v-164z" />
<glyph unicode="&#xac;" d="M90 637v135h819v-772h-135v637h-684z" />
<glyph unicode="&#xad;" horiz-adv-x="694" d="M63 625v131h566v-131h-566z" />
<glyph unicode="&#xaf;" horiz-adv-x="935" d="M90 1399v145h754v-145h-754z" />
<glyph unicode="&#xb0;" horiz-adv-x="735" d="M90 1307q0 137 79 209.5t200 72.5q119 0 196.5 -72.5t77.5 -209.5t-77.5 -213t-196.5 -76q-121 0 -200 75.5t-79 213.5zM190 1307q0 -94 50.5 -141.5t128.5 -47.5t124 47t46 142q0 92 -46.5 137t-123.5 45q-78 0 -128.5 -45t-50.5 -137z" />
<glyph unicode="&#xb1;" d="M90 37v135h819v-135h-819zM90 608v135h342v342h135v-342h342v-135h-342v-342h-135v342h-342z" />
<glyph unicode="&#xb2;" horiz-adv-x="569" d="M33 918q55 51 113.5 109t106.5 120.5t78.5 127t30.5 128.5q0 49 -22.5 78.5t-75.5 29.5q-43 0 -81 -17t-60 -52l-53 61q35 57 95 79t128 22q98 0 153.5 -44t55.5 -145q0 -63 -24.5 -118.5t-62.5 -104.5t-86 -93t-96 -83h277v-98h-477z" />
<glyph unicode="&#xb3;" horiz-adv-x="544" d="M33 1526q41 47 92 62.5t111 15.5q207 0 206 -174q0 -53 -29.5 -89t-74.5 -47q37 -6 62.5 -23.5t43 -42t25.5 -53t8 -55.5q0 -94 -33.5 -162.5t-87 -114.5t-122 -73t-138.5 -35l-22 74q119 29 183.5 100.5t64.5 200.5q0 57 -21.5 90t-75.5 33q-29 0 -55 -12l-14 59 q59 14 103 45t44 105q0 92 -96 92q-37 0 -71 -14.5t-58 -43.5z" />
<glyph unicode="&#xb4;" horiz-adv-x="669" d="M90 1372l240 344h248l-322 -344h-166z" />
<glyph unicode="&#xb5;" horiz-adv-x="1067" d="M90 -336v1559l242 59v-975q0 -94 42 -127t132 -33q74 0 137.5 35t91.5 78v963l242 59v-1282h-205l-8 143q-49 -68 -139 -108.5t-189 -40.5q-31 0 -56.5 6t-47.5 23v-359h-242z" />
<glyph unicode="&#xb6;" horiz-adv-x="974" d="M57 1235q0 178 68 256t182 78h627v-123h-137v-1782h-125v1782h-254v-1782h-129v1219q-47 8 -89 26.5t-74 57.5t-50.5 103.5t-18.5 164.5z" />
<glyph unicode="&#xb7;" horiz-adv-x="448" d="M90 768q0 53 35 86t100 33q66 0 99.5 -33t33.5 -86t-33.5 -86t-99.5 -33t-100.5 34t-34.5 85z" />
<glyph unicode="&#xb8;" horiz-adv-x="448" d="M90 -150q14 49 54 70t87 21q59 0 92 -27t33 -70t-19.5 -85t-52 -77.5t-73.5 -63.5t-84 -42q25 39 43 95.5t18 103.5q0 33 -21.5 54t-76.5 21z" />
<glyph unicode="&#xb9;" horiz-adv-x="333" d="M41 1552l215 60v-694h-141v552q0 33 -39 33l-33 -4z" />
<glyph unicode="&#xba;" horiz-adv-x="706" d="M92 944q0 74 11.5 143.5t43 122t89 84t147.5 31.5q119 0 176 -81t57 -265q0 -74 -11 -143.5t-44 -121.5t-89 -84t-146 -32q-121 0 -177.5 81t-56.5 265zM258 975q0 -154 25.5 -220.5t72.5 -66.5q55 0 74 63.5t19 196.5q0 154 -25 221.5t-72 67.5q-55 0 -74.5 -64.5 t-19.5 -197.5z" />
<glyph unicode="&#xbb;" horiz-adv-x="892" d="M63 350v164l224 211l-224 207v168l318 -291v-168zM509 350v164l224 211l-224 207v168l318 -291v-168z" />
<glyph unicode="&#xbc;" horiz-adv-x="1259" d="M59 -29l987 1401h142l-983 -1401h-146zM180 1368l215 60v-694h-141v552q0 33 -39 33l-33 -4zM715 185l434 720v-647h55v-73h-55v-168h-148v168h-286zM844 258h157v275z" />
<glyph unicode="&#xbd;" horiz-adv-x="1288" d="M59 -29l987 1401h142l-983 -1401h-146zM180 1368l215 60v-694h-141v552q0 33 -39 33l-33 -4zM756 -20q55 51 113.5 109t106.5 120.5t78.5 127t30.5 128.5q0 49 -22.5 78.5t-75.5 29.5q-43 0 -81 -17t-60 -52l-53 61q35 57 95 79t128 22q98 0 153.5 -44t55.5 -145 q0 -63 -24.5 -118.5t-62.5 -104.5t-86 -93t-96 -83h277v-98h-477z" />
<glyph unicode="&#xbe;" horiz-adv-x="1257" d="M59 -29l987 1401h142l-983 -1401h-146zM146 1465q41 47 92 62.5t111 15.5q207 0 206 -174q0 -53 -29.5 -89t-74.5 -47q37 -6 62.5 -23.5t43 -42t25.5 -53t8 -55.5q0 -94 -33.5 -162.5t-87 -114.5t-122 -73t-138.5 -35l-22 74q119 29 183.5 100.5t64.5 200.5 q0 57 -21.5 90t-75.5 33q-29 0 -55 -12l-14 59q59 14 103 45t44 105q0 92 -96 92q-37 0 -71 -14.5t-58 -43.5zM674 185l434 720v-647h55v-73h-55v-168h-148v168h-286zM803 258h157v275z" />
<glyph unicode="&#xbf;" horiz-adv-x="858" d="M61 318q0 72 19.5 130t52 107t76.5 91t94 83q33 27 68.5 58.5t66 66.5t50 75t19.5 83t-16 82t-43 67l129 37q55 -39 89 -100.5t34 -132.5q0 -80 -31 -138.5t-77 -105.5t-99 -89t-99 -87t-77 -98.5t-31 -124.5q0 -106 58.5 -155.5t152.5 -49.5q78 0 147.5 38t118.5 99 l95 -115q-66 -70 -164.5 -116.5t-235.5 -46.5q-184 0 -290.5 80.5t-106.5 261.5zM380 1479q0 53 33 85t98 32q66 0 101 -33t35 -84q0 -53 -35 -86t-101 -33t-98.5 33t-32.5 86z" />
<glyph unicode="&#xc0;" horiz-adv-x="935" d="M18 0l357 1569h211l332 -1569h-261l-69 328h-357l-67 -328h-146zM162 2021h250l238 -344h-164zM254 459h311l-155 706z" />
<glyph unicode="&#xc1;" horiz-adv-x="935" d="M18 0l357 1569h211l332 -1569h-261l-69 328h-357l-67 -328h-146zM254 459h311l-155 706zM293 1677l240 344h248l-322 -344h-166z" />
<glyph unicode="&#xc2;" horiz-adv-x="935" d="M18 0l357 1569h211l332 -1569h-261l-69 328h-357l-67 -328h-146zM41 1675l336 326h201l334 -326h-199l-236 229l-235 -229h-201zM254 459h311l-155 706z" />
<glyph unicode="&#xc3;" horiz-adv-x="935" d="M18 0l357 1569h211l332 -1569h-261l-69 328h-357l-67 -328h-146zM22 1718q16 254 254 254q94 0 149.5 -28.5t94.5 -62.5t75.5 -61.5t96.5 -27.5q55 0 82.5 26.5t36.5 108.5h106q-10 -127 -70.5 -190.5t-183.5 -63.5q-96 0 -150.5 28.5t-94.5 62.5t-76.5 62.5t-94.5 28.5 q-55 0 -83.5 -26.5t-34.5 -110.5h-107zM254 459h311l-155 706z" />
<glyph unicode="&#xc4;" horiz-adv-x="935" d="M18 0l357 1569h211l332 -1569h-261l-69 328h-357l-67 -328h-146zM90 1827q0 53 35 84.5t100 31.5q66 0 99.5 -31.5t33.5 -84.5t-33.5 -85t-99.5 -32t-100.5 32.5t-34.5 84.5zM254 459h311l-155 706zM582 1827q0 53 34.5 84.5t100.5 31.5q63 0 97 -31.5t34 -84.5t-34 -85 t-97 -32q-66 0 -100.5 32.5t-34.5 84.5z" />
<glyph unicode="&#xc5;" horiz-adv-x="935" d="M18 0l357 1569h211l332 -1569h-261l-69 328h-357l-67 -328h-146zM233 1823q0 92 60.5 145t185.5 53q131 0 186.5 -53t55.5 -145q0 -96 -55.5 -147.5t-186.5 -51.5q-123 0 -184.5 51t-61.5 148zM254 459h311l-155 706zM350 1823q0 -113 129 -113q131 0 131 113 q0 53 -32 83.5t-99 30.5q-66 0 -97.5 -30.5t-31.5 -83.5z" />
<glyph unicode="&#xc6;" horiz-adv-x="1513" d="M18 -2l357 1571h1095v-142h-512v-571h334v-139h-334v-582h512v-135h-765v328h-386l-67 -330h-234zM344 459h361v968h-156z" />
<glyph unicode="&#xc7;" horiz-adv-x="1034" d="M59 702q0 449 129 671t416 222q88 0 155.5 -23.5t116 -61t78 -88t45.5 -101.5l-127 -78q-43 104 -100 153.5t-160 49.5q-72 0 -125 -33t-90 -112.5t-55 -216t-18 -343.5q0 -180 16 -299.5t50 -192.5t85 -102.5t119 -29.5q106 0 167.5 55t94.5 166l123 -88 q-31 -74 -68 -127t-89 -87t-121.5 -49.5t-165.5 -15.5q-115 0 -204 41t-149.5 129t-91.5 227.5t-31 333.5zM444 -150q14 49 54 70t87 21q59 0 92 -27t33 -70t-19.5 -85t-52 -77.5t-73.5 -63.5t-84 -42q25 39 43 95.5t18 103.5q0 33 -21.5 54t-76.5 21z" />
<glyph unicode="&#xc8;" horiz-adv-x="931" d="M90 0v1569h799v-142h-545v-571h340v-139h-340v-582h545v-135h-799zM184 2021h250l238 -344h-164z" />
<glyph unicode="&#xc9;" horiz-adv-x="931" d="M90 0v1569h799v-142h-545v-571h340v-139h-340v-582h545v-135h-799zM303 1677l240 344h248l-322 -344h-166z" />
<glyph unicode="&#xca;" horiz-adv-x="931" d="M63 1675l336 326h201l334 -326h-199l-236 229l-235 -229h-201zM90 0v1569h799v-142h-545v-571h340v-139h-340v-582h545v-135h-799z" />
<glyph unicode="&#xcb;" horiz-adv-x="931" d="M90 0v1569h799v-142h-545v-571h340v-139h-340v-582h545v-135h-799zM110 1827q0 53 35 84.5t100 31.5q66 0 99.5 -31.5t33.5 -84.5t-33.5 -85t-99.5 -32t-100.5 32.5t-34.5 84.5zM602 1827q0 53 34.5 84.5t100.5 31.5q63 0 97 -31.5t34 -84.5t-34 -85t-97 -32 q-66 0 -100.5 32.5t-34.5 84.5z" />
<glyph unicode="&#xcc;" horiz-adv-x="452" d="M-76 2021h250l238 -344h-164zM98 0v1569h254v-1569h-254z" />
<glyph unicode="&#xcd;" horiz-adv-x="452" d="M47 1677l240 344h248l-322 -344h-166zM98 0v1569h254v-1569h-254z" />
<glyph unicode="&#xce;" horiz-adv-x="452" d="M-207 1675l336 326h201l334 -326h-199l-236 229l-235 -229h-201zM98 0v1569h254v-1569h-254z" />
<glyph unicode="&#xcf;" horiz-adv-x="452" d="M-150 1827q0 53 35 84.5t100 31.5q66 0 99.5 -31.5t33.5 -84.5t-33.5 -85t-99.5 -32t-100.5 32.5t-34.5 84.5zM98 0v1569h254v-1569h-254zM342 1827q0 53 34.5 84.5t100.5 31.5q63 0 97 -31.5t34 -84.5t-34 -85t-97 -32q-66 0 -100.5 32.5t-34.5 84.5z" />
<glyph unicode="&#xd0;" horiz-adv-x="1126" d="M20 717v137h97v715h510q115 0 196.5 -36t135 -117t78 -214t24.5 -325q0 -266 -23.5 -436.5t-82 -268.5t-157 -135t-245.5 -37h-436v717h-97zM365 135h165q78 0 130.5 31t84 110.5t45 217t13.5 352.5q0 203 -16.5 319.5t-52.5 175t-92 72.5t-136 14h-141v-573h225v-137 h-225v-582z" />
<glyph unicode="&#xd1;" horiz-adv-x="1050" d="M80 1718q16 254 254 254q94 0 149.5 -28.5t94.5 -62.5t75.5 -61.5t96.5 -27.5q55 0 82.5 26.5t36.5 108.5h106q-10 -127 -70.5 -190.5t-183.5 -63.5q-96 0 -150.5 28.5t-94.5 62.5t-76.5 62.5t-94.5 28.5q-55 0 -83.5 -26.5t-34.5 -110.5h-107zM82 0v1569h213l514 -963 v963h158v-1569h-90l-637 1137v-1137h-158z" />
<glyph unicode="&#xd2;" horiz-adv-x="1140" d="M59 735q0 215 31 376t98.5 268.5t177 161.5t267.5 54q227 0 337.5 -196.5t110.5 -558.5q0 -231 -31.5 -395t-101 -269.5t-181 -155t-269.5 -49.5q-115 0 -198 43t-136 136.5t-79 237.5t-26 347zM264 2021h250l238 -344h-164zM330 768q0 -190 11 -315t35.5 -200t65 -105.5 t99.5 -30.5q76 0 128 32.5t82.5 110.5t44 207t13.5 324q0 186 -11.5 311t-38 201.5t-67.5 109.5t-100 33q-76 0 -126 -34t-81 -112.5t-43 -208.5t-12 -323z" />
<glyph unicode="&#xd3;" horiz-adv-x="1140" d="M59 735q0 215 31 376t98.5 268.5t177 161.5t267.5 54q227 0 337.5 -196.5t110.5 -558.5q0 -231 -31.5 -395t-101 -269.5t-181 -155t-269.5 -49.5q-115 0 -198 43t-136 136.5t-79 237.5t-26 347zM330 768q0 -190 11 -315t35.5 -200t65 -105.5t99.5 -30.5q76 0 128 32.5 t82.5 110.5t44 207t13.5 324q0 186 -11.5 311t-38 201.5t-67.5 109.5t-100 33q-76 0 -126 -34t-81 -112.5t-43 -208.5t-12 -323zM387 1677l240 344h248l-322 -344h-166z" />
<glyph unicode="&#xd4;" horiz-adv-x="1140" d="M59 735q0 215 31 376t98.5 268.5t177 161.5t267.5 54q227 0 337.5 -196.5t110.5 -558.5q0 -231 -31.5 -395t-101 -269.5t-181 -155t-269.5 -49.5q-115 0 -198 43t-136 136.5t-79 237.5t-26 347zM135 1675l336 326h201l334 -326h-199l-236 229l-235 -229h-201zM330 768 q0 -190 11 -315t35.5 -200t65 -105.5t99.5 -30.5q76 0 128 32.5t82.5 110.5t44 207t13.5 324q0 186 -11.5 311t-38 201.5t-67.5 109.5t-100 33q-76 0 -126 -34t-81 -112.5t-43 -208.5t-12 -323z" />
<glyph unicode="&#xd5;" horiz-adv-x="1140" d="M59 735q0 215 31 376t98.5 268.5t177 161.5t267.5 54q227 0 337.5 -196.5t110.5 -558.5q0 -231 -31.5 -395t-101 -269.5t-181 -155t-269.5 -49.5q-115 0 -198 43t-136 136.5t-79 237.5t-26 347zM123 1718q16 254 254 254q94 0 149.5 -28.5t94.5 -62.5t75.5 -61.5 t96.5 -27.5q55 0 82.5 26.5t36.5 108.5h106q-10 -127 -70.5 -190.5t-183.5 -63.5q-96 0 -150.5 28.5t-94.5 62.5t-76.5 62.5t-94.5 28.5q-55 0 -83.5 -26.5t-34.5 -110.5h-107zM330 768q0 -190 11 -315t35.5 -200t65 -105.5t99.5 -30.5q76 0 128 32.5t82.5 110.5t44 207 t13.5 324q0 186 -11.5 311t-38 201.5t-67.5 109.5t-100 33q-76 0 -126 -34t-81 -112.5t-43 -208.5t-12 -323z" />
<glyph unicode="&#xd6;" horiz-adv-x="1140" d="M59 735q0 215 31 376t98.5 268.5t177 161.5t267.5 54q227 0 337.5 -196.5t110.5 -558.5q0 -231 -31.5 -395t-101 -269.5t-181 -155t-269.5 -49.5q-115 0 -198 43t-136 136.5t-79 237.5t-26 347zM190 1827q0 53 35 84.5t100 31.5q66 0 99.5 -31.5t33.5 -84.5t-33.5 -85 t-99.5 -32t-100.5 32.5t-34.5 84.5zM330 768q0 -190 11 -315t35.5 -200t65 -105.5t99.5 -30.5q76 0 128 32.5t82.5 110.5t44 207t13.5 324q0 186 -11.5 311t-38 201.5t-67.5 109.5t-100 33q-76 0 -126 -34t-81 -112.5t-43 -208.5t-12 -323zM682 1827q0 53 34.5 84.5 t100.5 31.5q63 0 97 -31.5t34 -84.5t-34 -85t-97 -32q-66 0 -100.5 32.5t-34.5 84.5z" />
<glyph unicode="&#xd7;" d="M162 434l241 242l-241 242l96 96l242 -242l241 242l97 -96l-242 -242l242 -242l-97 -96l-241 242l-242 -242z" />
<glyph unicode="&#xd8;" horiz-adv-x="1140" d="M59 735q0 215 31 376t98.5 268.5t177 161.5t267.5 54q78 0 143 -24l35 90h176l-72 -188q84 -94 125 -254t41 -379q0 -231 -31.5 -395t-101 -269.5t-181.5 -155t-269 -49.5q-76 0 -138 19l-32 -90h-174l65 176q-84 86 -122 246.5t-38 412.5zM330 768q0 -111 3 -200 t11 -156l367 983q-45 51 -119 51q-76 0 -126 -34t-81 -112.5t-43 -208.5t-12 -323zM426 162q23 -25 51.5 -35t63.5 -10q76 0 128 32.5t82.5 110.5t44 207t13.5 324q0 109 -4 195.5t-12 154.5z" />
<glyph unicode="&#xd9;" horiz-adv-x="974" d="M82 332v1237h254v-1239q0 -117 47 -165t152 -48q43 0 77.5 10t60 34.5t40 66.5t14.5 108v1233h164v-1219q0 -111 -26.5 -184.5t-78 -116.5t-124 -60.5t-166.5 -17.5q-113 0 -192 21.5t-128 65.5t-71.5 113t-22.5 161zM182 2021h250l238 -344h-164z" />
<glyph unicode="&#xda;" horiz-adv-x="974" d="M82 332v1237h254v-1239q0 -117 47 -165t152 -48q43 0 77.5 10t60 34.5t40 66.5t14.5 108v1233h164v-1219q0 -111 -26.5 -184.5t-78 -116.5t-124 -60.5t-166.5 -17.5q-113 0 -192 21.5t-128 65.5t-71.5 113t-22.5 161zM305 1677l240 344h248l-322 -344h-166z" />
<glyph unicode="&#xdb;" horiz-adv-x="974" d="M55 1675l336 326h201l334 -326h-199l-236 229l-235 -229h-201zM82 332v1237h254v-1239q0 -117 47 -165t152 -48q43 0 77.5 10t60 34.5t40 66.5t14.5 108v1233h164v-1219q0 -111 -26.5 -184.5t-78 -116.5t-124 -60.5t-166.5 -17.5q-113 0 -192 21.5t-128 65.5t-71.5 113 t-22.5 161z" />
<glyph unicode="&#xdc;" horiz-adv-x="974" d="M82 332v1237h254v-1239q0 -117 47 -165t152 -48q43 0 77.5 10t60 34.5t40 66.5t14.5 108v1233h164v-1219q0 -111 -26.5 -184.5t-78 -116.5t-124 -60.5t-166.5 -17.5q-113 0 -192 21.5t-128 65.5t-71.5 113t-22.5 161zM108 1827q0 53 35 84.5t100 31.5q66 0 99.5 -31.5 t33.5 -84.5t-33.5 -85t-99.5 -32t-100.5 32.5t-34.5 84.5zM600 1827q0 53 34.5 84.5t100.5 31.5q63 0 97 -31.5t34 -84.5t-34 -85t-97 -32q-66 0 -100.5 32.5t-34.5 84.5z" />
<glyph unicode="&#xdd;" horiz-adv-x="913" d="M14 1569h250l240 -602l260 602h131l-317 -733v-836h-250v809zM274 1677l240 344h248l-322 -344h-166z" />
<glyph unicode="&#xde;" horiz-adv-x="1050" d="M90 0v1569h254v-301h254q115 0 194.5 -24.5t129 -74t71 -124t21.5 -175.5q0 -160 -23.5 -269t-78 -175t-144.5 -94.5t-223 -28.5h-201v-303h-254zM344 440h174q66 0 112 18.5t75.5 59.5t43 109.5t13.5 171.5q0 98 -10.5 161.5t-35 100.5t-62.5 51t-93 14h-217v-686z" />
<glyph unicode="&#xdf;" horiz-adv-x="1122" d="M90 0v1274q0 180 117 267t368 87q86 0 164 -21.5t138.5 -68.5t95.5 -125t35 -190q0 -160 -60.5 -254.5t-189.5 -120.5q63 -10 120.5 -35t98.5 -69t65.5 -111.5t24.5 -165.5q0 -102 -21.5 -192.5t-71.5 -158t-133 -106.5t-204 -39q-78 0 -121 11.5t-65 27.5v103 q27 -6 59.5 -8.5t69.5 4.5q72 6 115.5 29.5t68 62.5t33 94t8.5 123q0 186 -74 273t-233 87l-4 96q74 12 129 32t91 53.5t53 87t17 133.5q0 90 -16 150.5t-47 96t-75 51t-99 15.5q-92 0 -153.5 -43t-61.5 -160v-1290h-242z" />
<glyph unicode="&#xe0;" d="M41 324q0 166 65.5 254t202.5 135q45 16 95.5 25.5t98.5 18.5t92 22.5t75 35.5v129q0 100 -41 151.5t-156 51.5q-86 0 -148.5 -38t-101.5 -122l-119 90q59 115 163 165t225 50q86 0 162.5 -13t133 -51t89 -106.5t32.5 -179.5v-752q0 -51 9.5 -100t39.5 -90h-225 q-23 31 -32 70t-11 82q-41 -84 -123 -132.5t-192 -48.5q-168 0 -251 93.5t-83 259.5zM194 1716h250l238 -344h-164zM276 360q0 -123 44.5 -179t138.5 -56q72 0 127 37t86 102v438q-41 -23 -96.5 -36t-106.5 -29q-102 -33 -147.5 -100.5t-45.5 -176.5z" />
<glyph unicode="&#xe1;" d="M41 324q0 166 65.5 254t202.5 135q45 16 95.5 25.5t98.5 18.5t92 22.5t75 35.5v129q0 100 -41 151.5t-156 51.5q-86 0 -148.5 -38t-101.5 -122l-119 90q59 115 163 165t225 50q86 0 162.5 -13t133 -51t89 -106.5t32.5 -179.5v-752q0 -51 9.5 -100t39.5 -90h-225 q-23 31 -32 70t-11 82q-41 -84 -123 -132.5t-192 -48.5q-168 0 -251 93.5t-83 259.5zM276 360q0 -123 44.5 -179t138.5 -56q72 0 127 37t86 102v438q-41 -23 -96.5 -36t-106.5 -29q-102 -33 -147.5 -100.5t-45.5 -176.5zM338 1372l240 344h248l-322 -344h-166z" />
<glyph unicode="&#xe2;" d="M41 324q0 166 65.5 254t202.5 135q45 16 95.5 25.5t98.5 18.5t92 22.5t75 35.5v129q0 100 -41 151.5t-156 51.5q-86 0 -148.5 -38t-101.5 -122l-119 90q59 115 163 165t225 50q86 0 162.5 -13t133 -51t89 -106.5t32.5 -179.5v-752q0 -51 9.5 -100t39.5 -90h-225 q-23 31 -32 70t-11 82q-41 -84 -123 -132.5t-192 -48.5q-168 0 -251 93.5t-83 259.5zM88 1370l336 326h201l334 -326h-199l-236 229l-235 -229h-201zM276 360q0 -123 44.5 -179t138.5 -56q72 0 127 37t86 102v438q-41 -23 -96.5 -36t-106.5 -29q-102 -33 -147.5 -100.5 t-45.5 -176.5z" />
<glyph unicode="&#xe3;" d="M41 324q0 166 65.5 254t202.5 135q45 16 95.5 25.5t98.5 18.5t92 22.5t75 35.5v129q0 100 -41 151.5t-156 51.5q-86 0 -148.5 -38t-101.5 -122l-119 90q59 115 163 165t225 50q86 0 162.5 -13t133 -51t89 -106.5t32.5 -179.5v-752q0 -51 9.5 -100t39.5 -90h-225 q-23 31 -32 70t-11 82q-41 -84 -123 -132.5t-192 -48.5q-168 0 -251 93.5t-83 259.5zM76 1413q16 254 254 254q94 0 149.5 -28.5t94.5 -62.5t75.5 -61.5t96.5 -27.5q55 0 82.5 26.5t36.5 108.5h106q-10 -127 -70.5 -190.5t-183.5 -63.5q-96 0 -150.5 28.5t-94.5 62.5 t-76.5 62.5t-94.5 28.5q-55 0 -83.5 -26.5t-34.5 -110.5h-107zM276 360q0 -123 44.5 -179t138.5 -56q72 0 127 37t86 102v438q-41 -23 -96.5 -36t-106.5 -29q-102 -33 -147.5 -100.5t-45.5 -176.5z" />
<glyph unicode="&#xe4;" d="M41 324q0 166 65.5 254t202.5 135q45 16 95.5 25.5t98.5 18.5t92 22.5t75 35.5v129q0 100 -41 151.5t-156 51.5q-86 0 -148.5 -38t-101.5 -122l-119 90q59 115 163 165t225 50q86 0 162.5 -13t133 -51t89 -106.5t32.5 -179.5v-752q0 -51 9.5 -100t39.5 -90h-225 q-23 31 -32 70t-11 82q-41 -84 -123 -132.5t-192 -48.5q-168 0 -251 93.5t-83 259.5zM141 1522q0 53 35 84.5t100 31.5q66 0 99.5 -31.5t33.5 -84.5t-33.5 -85t-99.5 -32t-100.5 32.5t-34.5 84.5zM276 360q0 -123 44.5 -179t138.5 -56q72 0 127 37t86 102v438 q-41 -23 -96.5 -36t-106.5 -29q-102 -33 -147.5 -100.5t-45.5 -176.5zM633 1522q0 53 34.5 84.5t100.5 31.5q63 0 97 -31.5t34 -84.5t-34 -85t-97 -32q-66 0 -100.5 32.5t-34.5 84.5z" />
<glyph unicode="&#xe5;" d="M41 324q0 166 65.5 254t202.5 135q45 16 95.5 25.5t98.5 18.5t92 22.5t75 35.5v129q0 100 -41 151.5t-156 51.5q-86 0 -148.5 -38t-101.5 -122l-119 90q59 115 163 165t225 50q86 0 162.5 -13t133 -51t89 -106.5t32.5 -179.5v-752q0 -51 9.5 -100t39.5 -90h-225 q-23 31 -32 70t-11 82q-41 -84 -123 -132.5t-192 -48.5q-168 0 -251 93.5t-83 259.5zM276 360q0 -123 44.5 -179t138.5 -56q72 0 127 37t86 102v438q-41 -23 -96.5 -36t-106.5 -29q-102 -33 -147.5 -100.5t-45.5 -176.5zM276 1518q0 92 60.5 145t185.5 53q131 0 186.5 -53 t55.5 -145q0 -96 -55.5 -147.5t-186.5 -51.5q-123 0 -184.5 51t-61.5 148zM393 1518q0 -113 129 -113q131 0 131 113q0 53 -32 83.5t-99 30.5q-66 0 -97.5 -30.5t-31.5 -83.5z" />
<glyph unicode="&#xe6;" horiz-adv-x="1615" d="M41 324q0 166 65.5 254t202.5 135q43 14 91.5 23t95.5 18.5t90 21.5t76 33q8 49 11 79t3 52q0 86 -45 146.5t-158 60.5q-86 0 -148.5 -38t-101.5 -122l-119 90q59 115 163 165t225 50q111 0 202.5 -22.5t147.5 -91.5q59 59 132 86.5t150 27.5q129 0 213 -35.5 t133.5 -113.5t69 -203t19.5 -303h-676q0 -254 56 -390t200 -136q100 0 153.5 38.5t81.5 108.5l109 -78q-18 -43 -47 -81t-73 -66.5t-108.5 -45t-156.5 -16.5q-291 0 -396 205q-59 -106 -141 -155.5t-186 -49.5q-168 0 -251 93.5t-83 259.5zM276 360q0 -123 44.5 -179 t138.5 -56q61 0 114.5 32.5t94.5 106.5q-31 113 -31 266q0 41 2 81t6 77q-41 -23 -87 -31t-89 -20q-102 -33 -147.5 -102.5t-45.5 -174.5zM887 752h446q-2 113 -14 190.5t-38 124.5t-64.5 67.5t-90.5 20.5q-43 0 -81.5 -19.5t-71.5 -66.5t-55.5 -125t-30.5 -192z" />
<glyph unicode="&#xe7;" horiz-adv-x="942" d="M59 522q0 176 28 318.5t88.5 243t156.5 154.5t231 54q76 0 134.5 -18.5t100.5 -49t68.5 -71.5t38.5 -86l-123 -66q-59 156 -204 156q-135 0 -198 -148.5t-63 -441.5q0 -244 54.5 -352.5t183.5 -108.5q86 0 136 45.5t79 116.5l117 -69q-20 -47 -51 -88t-77 -72 t-110.5 -49.5t-152.5 -18.5q-225 0 -331 141.5t-106 409.5zM389 -150q14 49 54 70t87 21q59 0 92 -27t33 -70t-19.5 -85t-52 -77.5t-73.5 -63.5t-84 -42q25 39 43 95.5t18 103.5q0 33 -21.5 54t-76.5 21z" />
<glyph unicode="&#xe8;" horiz-adv-x="1038" d="M59 530q0 201 40 345.5t107.5 236.5t156 136t184.5 44q129 0 213 -35.5t133 -113.5t68.5 -203t19.5 -303h-676q0 -254 56.5 -390t199.5 -136q100 0 153.5 38.5t82.5 108.5l108 -78q-18 -43 -47 -81t-73 -66.5t-108.5 -45t-156.5 -16.5q-244 0 -352.5 140.5t-108.5 418.5z M233 1716h250l238 -344h-164zM309 752h447q-2 113 -14.5 190.5t-38 124.5t-64.5 67.5t-90 20.5q-43 0 -82 -19.5t-72 -66.5t-55.5 -125t-30.5 -192z" />
<glyph unicode="&#xe9;" horiz-adv-x="1038" d="M59 530q0 201 40 345.5t107.5 236.5t156 136t184.5 44q129 0 213 -35.5t133 -113.5t68.5 -203t19.5 -303h-676q0 -254 56.5 -390t199.5 -136q100 0 153.5 38.5t82.5 108.5l108 -78q-18 -43 -47 -81t-73 -66.5t-108.5 -45t-156.5 -16.5q-244 0 -352.5 140.5t-108.5 418.5z M309 752h447q-2 113 -14.5 190.5t-38 124.5t-64.5 67.5t-90 20.5q-43 0 -82 -19.5t-72 -66.5t-55.5 -125t-30.5 -192zM336 1372l240 344h248l-322 -344h-166z" />
<glyph unicode="&#xea;" horiz-adv-x="1038" d="M59 530q0 201 40 345.5t107.5 236.5t156 136t184.5 44q129 0 213 -35.5t133 -113.5t68.5 -203t19.5 -303h-676q0 -254 56.5 -390t199.5 -136q100 0 153.5 38.5t82.5 108.5l108 -78q-18 -43 -47 -81t-73 -66.5t-108.5 -45t-156.5 -16.5q-244 0 -352.5 140.5t-108.5 418.5z M104 1370l336 326h201l334 -326h-199l-236 229l-235 -229h-201zM309 752h447q-2 113 -14.5 190.5t-38 124.5t-64.5 67.5t-90 20.5q-43 0 -82 -19.5t-72 -66.5t-55.5 -125t-30.5 -192z" />
<glyph unicode="&#xeb;" horiz-adv-x="1038" d="M59 530q0 201 40 345.5t107.5 236.5t156 136t184.5 44q129 0 213 -35.5t133 -113.5t68.5 -203t19.5 -303h-676q0 -254 56.5 -390t199.5 -136q100 0 153.5 38.5t82.5 108.5l108 -78q-18 -43 -47 -81t-73 -66.5t-108.5 -45t-156.5 -16.5q-244 0 -352.5 140.5t-108.5 418.5z M160 1522q0 53 35 84.5t100 31.5q66 0 99.5 -31.5t33.5 -84.5t-33.5 -85t-99.5 -32t-100.5 32.5t-34.5 84.5zM309 752h447q-2 113 -14.5 190.5t-38 124.5t-64.5 67.5t-90 20.5q-43 0 -82 -19.5t-72 -66.5t-55.5 -125t-30.5 -192zM652 1522q0 53 34.5 84.5t100.5 31.5 q63 0 97 -31.5t34 -84.5t-34 -85t-97 -32q-66 0 -100.5 32.5t-34.5 84.5z" />
<glyph unicode="&#xec;" horiz-adv-x="532" d="M10 1716h250l238 -344h-164zM194 0v1223l242 59v-1282h-242z" />
<glyph unicode="&#xed;" horiz-adv-x="526" d="M39 1372l240 344h248l-322 -344h-166zM100 0v1223l242 59v-1282h-242z" />
<glyph unicode="&#xee;" horiz-adv-x="745" d="M-62 1370l336 326h201l334 -326h-199l-236 229l-235 -229h-201zM252 0v1223l242 59v-1282h-242z" />
<glyph unicode="&#xef;" horiz-adv-x="663" d="M-47 1522q0 53 35 84.5t100 31.5q66 0 99.5 -31.5t33.5 -84.5t-33.5 -85t-99.5 -32t-100.5 32.5t-34.5 84.5zM211 0v1223l242 59v-1282h-242zM445 1522q0 53 34.5 84.5t100.5 31.5q63 0 97 -31.5t34 -84.5t-34 -85t-97 -32q-66 0 -100.5 32.5t-34.5 84.5z" />
<glyph unicode="&#xf0;" horiz-adv-x="1052" d="M57 451q0 133 30 225t82 148.5t125 81t159 24.5q109 0 181.5 -35t145.5 -121q-10 164 -54 300t-136 235l-305 -230l-54 78l297 215q-129 113 -323 158l20 98q129 -18 236.5 -58t193.5 -106l209 156l56 -78l-195 -137q264 -250 264 -795q0 -332 -126 -485.5t-355 -153.5 q-104 0 -188 26t-142.5 83t-89.5 148t-31 223zM309 467q0 -201 55.5 -288t157.5 -87q211 0 211 389q-41 178 -95 250t-134 72q-51 0 -88 -17.5t-60.5 -57.5t-35 -103.5t-11.5 -157.5z" />
<glyph unicode="&#xf1;" horiz-adv-x="1058" d="M84 1413q16 254 254 254q94 0 149.5 -28.5t94.5 -62.5t75.5 -61.5t96.5 -27.5q55 0 82.5 26.5t36.5 108.5h106q-10 -127 -70.5 -190.5t-183.5 -63.5q-96 0 -150.5 28.5t-94.5 62.5t-76.5 62.5t-94.5 28.5q-55 0 -83.5 -26.5t-34.5 -110.5h-107zM90 0v1223l242 59v-145 q47 61 139 108t215 47q147 0 219 -78.5t72 -244.5v-969h-242v950q0 96 -42 131t-132 35q-74 0 -137.5 -34.5t-91.5 -77.5v-1004h-242z" />
<glyph unicode="&#xf2;" horiz-adv-x="1056" d="M59 600q0 135 20.5 260t78 221.5t159 153.5t263.5 57q213 0 314 -147.5t101 -480.5q0 -135 -20.5 -260t-77.5 -221.5t-157.5 -154t-262.5 -57.5q-215 0 -316.5 147.5t-101.5 481.5zM223 1716h250l238 -344h-164zM307 643q0 -143 13.5 -244.5t40 -166t66.5 -95.5t93 -31 q70 0 115 34t70.5 99.5t35 160t9.5 216.5q0 287 -52.5 414t-162.5 127q-70 0 -114 -35t-69.5 -100.5t-35 -160.5t-9.5 -218z" />
<glyph unicode="&#xf3;" horiz-adv-x="1056" d="M59 600q0 135 20.5 260t78 221.5t159 153.5t263.5 57q213 0 314 -147.5t101 -480.5q0 -135 -20.5 -260t-77.5 -221.5t-157.5 -154t-262.5 -57.5q-215 0 -316.5 147.5t-101.5 481.5zM307 643q0 -143 13.5 -244.5t40 -166t66.5 -95.5t93 -31q70 0 115 34t70.5 99.5t35 160 t9.5 216.5q0 287 -52.5 414t-162.5 127q-70 0 -114 -35t-69.5 -100.5t-35 -160.5t-9.5 -218zM346 1372l240 344h248l-322 -344h-166z" />
<glyph unicode="&#xf4;" horiz-adv-x="1056" d="M59 600q0 135 20.5 260t78 221.5t159 153.5t263.5 57q213 0 314 -147.5t101 -480.5q0 -135 -20.5 -260t-77.5 -221.5t-157.5 -154t-262.5 -57.5q-215 0 -316.5 147.5t-101.5 481.5zM92 1370l336 326h201l334 -326h-199l-236 229l-235 -229h-201zM307 643 q0 -143 13.5 -244.5t40 -166t66.5 -95.5t93 -31q70 0 115 34t70.5 99.5t35 160t9.5 216.5q0 287 -52.5 414t-162.5 127q-70 0 -114 -35t-69.5 -100.5t-35 -160.5t-9.5 -218z" />
<glyph unicode="&#xf5;" horiz-adv-x="1056" d="M59 600q0 135 20.5 260t78 221.5t159 153.5t263.5 57q213 0 314 -147.5t101 -480.5q0 -135 -20.5 -260t-77.5 -221.5t-157.5 -154t-262.5 -57.5q-215 0 -316.5 147.5t-101.5 481.5zM84 1413q16 254 254 254q94 0 149.5 -28.5t94.5 -62.5t75.5 -61.5t96.5 -27.5 q55 0 82.5 26.5t36.5 108.5h106q-10 -127 -70.5 -190.5t-183.5 -63.5q-96 0 -150.5 28.5t-94.5 62.5t-76.5 62.5t-94.5 28.5q-55 0 -83.5 -26.5t-34.5 -110.5h-107zM307 643q0 -143 13.5 -244.5t40 -166t66.5 -95.5t93 -31q70 0 115 34t70.5 99.5t35 160t9.5 216.5 q0 287 -52.5 414t-162.5 127q-70 0 -114 -35t-69.5 -100.5t-35 -160.5t-9.5 -218z" />
<glyph unicode="&#xf6;" horiz-adv-x="1056" d="M59 600q0 135 20.5 260t78 221.5t159 153.5t263.5 57q213 0 314 -147.5t101 -480.5q0 -135 -20.5 -260t-77.5 -221.5t-157.5 -154t-262.5 -57.5q-215 0 -316.5 147.5t-101.5 481.5zM149 1522q0 53 35 84.5t100 31.5q66 0 99.5 -31.5t33.5 -84.5t-33.5 -85t-99.5 -32 t-100.5 32.5t-34.5 84.5zM307 643q0 -143 13.5 -244.5t40 -166t66.5 -95.5t93 -31q70 0 115 34t70.5 99.5t35 160t9.5 216.5q0 287 -52.5 414t-162.5 127q-70 0 -114 -35t-69.5 -100.5t-35 -160.5t-9.5 -218zM641 1522q0 53 34.5 84.5t100.5 31.5q63 0 97 -31.5t34 -84.5 t-34 -85t-97 -32q-66 0 -100.5 32.5t-34.5 84.5z" />
<glyph unicode="&#xf7;" d="M90 608v135h819v-135h-819zM366 366q0 53 35 86t100 33q66 0 99.5 -33t33.5 -86t-33.5 -86t-99.5 -33t-100.5 34t-34.5 85zM366 985q0 53 35 86t100 33q66 0 99.5 -33t33.5 -86t-33.5 -86t-99.5 -33t-100.5 34t-34.5 85z" />
<glyph unicode="&#xf8;" horiz-adv-x="1056" d="M59 600q0 135 20.5 260t78 221.5t159 153.5t263.5 57q66 0 131 -16l45 108h170l-78 -186q76 -72 111.5 -203t35.5 -331q0 -135 -20.5 -260t-77.5 -221.5t-157.5 -154t-262.5 -57.5q-37 0 -69.5 4.5t-63.5 12.5l-53 -131h-168l84 204q-147 141 -148 539zM307 643 q0 -182 21 -291l315 762q-47 43 -108 43q-70 0 -114 -35t-69.5 -100.5t-35 -160.5t-9.5 -218zM412 150q42 -44 108 -44q70 0 115 34t70.5 99.5t35 160t9.5 216.5q0 90 -5.5 162t-15.5 131z" />
<glyph unicode="&#xf9;" horiz-adv-x="1058" d="M82 291v932l242 59v-969q0 -98 42 -132t132 -34q74 0 137 35t92 78v963l242 59v-1282h-205l-6 143q-23 -31 -57.5 -61.5t-81 -55t-102.5 -40t-124 -15.5q-164 0 -237.5 77t-73.5 243zM223 1716h250l238 -344h-164z" />
<glyph unicode="&#xfa;" horiz-adv-x="1058" d="M82 291v932l242 59v-969q0 -98 42 -132t132 -34q74 0 137 35t92 78v963l242 59v-1282h-205l-6 143q-23 -31 -57.5 -61.5t-81 -55t-102.5 -40t-124 -15.5q-164 0 -237.5 77t-73.5 243zM346 1372l240 344h248l-322 -344h-166z" />
<glyph unicode="&#xfb;" horiz-adv-x="1058" d="M82 291v932l242 59v-969q0 -98 42 -132t132 -34q74 0 137 35t92 78v963l242 59v-1282h-205l-6 143q-23 -31 -57.5 -61.5t-81 -55t-102.5 -40t-124 -15.5q-164 0 -237.5 77t-73.5 243zM94 1370l336 326h201l334 -326h-199l-236 229l-235 -229h-201z" />
<glyph unicode="&#xfc;" horiz-adv-x="1058" d="M82 291v932l242 59v-969q0 -98 42 -132t132 -34q74 0 137 35t92 78v963l242 59v-1282h-205l-6 143q-23 -31 -57.5 -61.5t-81 -55t-102.5 -40t-124 -15.5q-164 0 -237.5 77t-73.5 243zM149 1522q0 53 35 84.5t100 31.5q66 0 99.5 -31.5t33.5 -84.5t-33.5 -85t-99.5 -32 t-100.5 32.5t-34.5 84.5zM641 1522q0 53 34.5 84.5t100.5 31.5q63 0 97 -31.5t34 -84.5t-34 -85t-97 -32q-66 0 -100.5 32.5t-34.5 84.5z" />
<glyph unicode="&#xfd;" horiz-adv-x="913" d="M18 1264h256l234 -869l248 869h137l-322 -1114q-31 -109 -72.5 -199t-97 -153.5t-127 -98.5t-163.5 -35l-45 123q102 4 187 68.5t120 181.5zM274 1372l240 344h248l-322 -344h-166z" />
<glyph unicode="&#xfe;" horiz-adv-x="1064" d="M90 -336v1905l242 59v-495q47 72 122.5 115.5t168.5 43.5q98 0 170.5 -43t118.5 -122.5t69 -192.5t23 -254q0 -352 -99.5 -530.5t-286.5 -178.5q-94 0 -168.5 47.5t-117.5 108.5v-463h-242zM332 283q23 -53 75 -94.5t121 -41.5q121 0 173.5 110t52.5 355q0 248 -58.5 376 t-175.5 128q-59 0 -109.5 -34.5t-78.5 -96.5v-702z" />
<glyph unicode="&#xff;" horiz-adv-x="913" d="M18 1264h256l234 -869l248 869h137l-322 -1114q-31 -109 -72.5 -199t-97 -153.5t-127 -98.5t-163.5 -35l-45 123q102 4 187 68.5t120 181.5zM98 1522q0 53 35 84.5t100 31.5q66 0 99.5 -31.5t33.5 -84.5t-33.5 -85t-99.5 -32t-100.5 32.5t-34.5 84.5zM590 1522 q0 53 34.5 84.5t100.5 31.5q63 0 97 -31.5t34 -84.5t-34 -85t-97 -32q-66 0 -100.5 32.5t-34.5 84.5z" />
<glyph unicode="&#x152;" horiz-adv-x="1503" d="M61 754q0 240 25 397.5t81 249.5t148.5 130t229.5 38h915v-142h-504v-571h324v-139h-324v-582h504v-135h-944q-127 0 -213 37t-140 124t-78 231.5t-24 361.5zM324 860q0 -242 13 -385t44 -218t83 -97.5t132 -22.5h106v1295h-129q-63 0 -110 -27t-78 -93.5t-46 -176 t-15 -275.5z" />
<glyph unicode="&#x153;" horiz-adv-x="1681" d="M59 600q0 135 20.5 260t78 221.5t159 153.5t263.5 57q203 0 305 -135q63 70 140 102.5t163 32.5q129 0 213 -35.5t133 -113.5t68.5 -203t19.5 -303h-676q0 -254 56.5 -390t199.5 -136q100 0 153.5 38.5t82.5 108.5l108 -78q-18 -43 -47 -81t-73 -66.5t-108.5 -45 t-156.5 -16.5q-115 0 -196.5 31t-139.5 90q-59 -57 -144 -89t-204 -32q-215 0 -316.5 147.5t-101.5 481.5zM307 643q0 -143 13.5 -244.5t40 -166t66.5 -95.5t93 -31q86 0 133 49.5t70 145.5q-23 102 -23 229q0 182 35 328q-18 156 -68.5 227.5t-131.5 71.5q-70 0 -114 -35 t-69.5 -100.5t-35 -160.5t-9.5 -218zM950 752h447q-2 113 -14.5 190.5t-38 124.5t-64.5 67.5t-90 20.5q-43 0 -82 -19.5t-71.5 -66.5t-55.5 -125t-31 -192z" />
<glyph unicode="&#x178;" horiz-adv-x="913" d="M14 1569h250l240 -602l260 602h131l-317 -733v-836h-250v809zM80 1827q0 53 35 84.5t100 31.5q66 0 99.5 -31.5t33.5 -84.5t-33.5 -85t-99.5 -32t-100.5 32.5t-34.5 84.5zM572 1827q0 53 34.5 84.5t100.5 31.5q63 0 97 -31.5t34 -84.5t-34 -85t-97 -32q-66 0 -100.5 32.5 t-34.5 84.5z" />
<glyph unicode="&#x2c6;" horiz-adv-x="1052" d="M90 1370l336 326h201l334 -326h-199l-236 229l-235 -229h-201z" />
<glyph unicode="&#x2dc;" horiz-adv-x="1077" d="M90 1413q16 254 254 254q94 0 149.5 -28.5t94.5 -62.5t75.5 -61.5t96.5 -27.5q55 0 82.5 26.5t36.5 108.5h106q-10 -127 -70.5 -190.5t-183.5 -63.5q-96 0 -150.5 28.5t-94.5 62.5t-76.5 62.5t-94.5 28.5q-55 0 -83.5 -26.5t-34.5 -110.5h-107z" />
<glyph unicode="&#x2000;" horiz-adv-x="1010" />
<glyph unicode="&#x2001;" horiz-adv-x="2021" />
<glyph unicode="&#x2002;" horiz-adv-x="1010" />
<glyph unicode="&#x2003;" horiz-adv-x="2021" />
<glyph unicode="&#x2004;" horiz-adv-x="673" />
<glyph unicode="&#x2005;" horiz-adv-x="505" />
<glyph unicode="&#x2006;" horiz-adv-x="336" />
<glyph unicode="&#x2007;" horiz-adv-x="336" />
<glyph unicode="&#x2008;" horiz-adv-x="252" />
<glyph unicode="&#x2009;" horiz-adv-x="404" />
<glyph unicode="&#x200a;" horiz-adv-x="112" />
<glyph unicode="&#x2010;" horiz-adv-x="694" d="M63 625v131h566v-131h-566z" />
<glyph unicode="&#x2011;" horiz-adv-x="694" d="M63 625v131h566v-131h-566z" />
<glyph unicode="&#x2012;" horiz-adv-x="694" d="M63 625v131h566v-131h-566z" />
<glyph unicode="&#x2013;" horiz-adv-x="903" d="M63 625v131h777v-131h-777z" />
<glyph unicode="&#x2014;" horiz-adv-x="1413" d="M63 625v131h1285v-131h-1285z" />
<glyph unicode="&#x2018;" horiz-adv-x="462" d="M90 1346q0 45 21.5 89t55.5 80.5t77 66.5t88 46q-29 -43 -47.5 -93t-18.5 -108q0 -39 22.5 -65.5t82.5 -26.5q-14 -59 -57.5 -83.5t-92.5 -24.5q-59 0 -95 32.5t-36 86.5z" />
<glyph unicode="&#x2019;" horiz-adv-x="462" d="M90 1518q14 59 57 84.5t93 25.5q59 0 95 -32.5t36 -86.5q0 -47 -21.5 -90t-55.5 -81t-77 -67.5t-88 -45.5q29 47 47.5 96t18.5 104q0 39 -22.5 66t-82.5 27z" />
<glyph unicode="&#x201a;" horiz-adv-x="462" d="M90 98q14 61 57 87t93 26q59 0 95 -34t36 -89q0 -47 -21.5 -90t-55.5 -80t-77 -66t-88 -47q29 45 47.5 95.5t18.5 107.5q0 39 -22.5 64.5t-82.5 25.5z" />
<glyph unicode="&#x201c;" horiz-adv-x="925" d="M90 1346q0 45 21.5 89t55.5 80.5t77 66.5t88 46q-29 -43 -47.5 -93t-18.5 -108q0 -39 22.5 -65.5t82.5 -26.5q-14 -59 -57.5 -83.5t-92.5 -24.5q-59 0 -95 32.5t-36 86.5zM553 1346q0 45 21.5 89t55.5 80.5t77 66.5t88 46q-29 -43 -47.5 -93t-18.5 -108q0 -39 22.5 -65.5 t82.5 -26.5q-14 -59 -57.5 -83.5t-92.5 -24.5q-59 0 -95 32.5t-36 86.5z" />
<glyph unicode="&#x201d;" horiz-adv-x="925" d="M90 1518q14 59 57 84.5t93 25.5q59 0 95 -32.5t36 -86.5q0 -47 -21.5 -90t-55.5 -81t-77 -67.5t-88 -45.5q29 47 47.5 96t18.5 104q0 39 -22.5 66t-82.5 27zM553 1518q14 59 57 84.5t93 25.5q59 0 95 -32.5t36 -86.5q0 -47 -21.5 -90t-55.5 -81t-77 -67.5t-88 -45.5 q29 47 47.5 96t18.5 104q0 39 -22.5 66t-82.5 27z" />
<glyph unicode="&#x201e;" horiz-adv-x="925" d="M90 98q14 61 57 87t93 26q59 0 95 -34t36 -89q0 -47 -21.5 -90t-55.5 -80t-77 -66t-88 -47q29 45 47.5 95.5t18.5 107.5q0 39 -22.5 64.5t-82.5 25.5zM553 98q14 61 57 87t93 26q59 0 95 -34t36 -89q0 -47 -21.5 -90t-55.5 -80t-77 -66t-88 -47q29 45 47.5 95.5 t18.5 107.5q0 39 -22.5 64.5t-82.5 25.5z" />
<glyph unicode="&#x2022;" horiz-adv-x="700" d="M90 780q0 100 69.5 160.5t194.5 60.5t190.5 -60.5t65.5 -160.5t-65.5 -160.5t-190.5 -60.5t-194.5 62.5t-69.5 158.5z" />
<glyph unicode="&#x2026;" horiz-adv-x="2242" d="M90 92q0 53 35 86t100 33q66 0 99.5 -33t33.5 -86t-33.5 -86t-99.5 -33t-100.5 34t-34.5 85zM987 92q0 53 35 86t100 33q66 0 99.5 -33t33.5 -86t-33.5 -86t-99.5 -33t-100.5 34t-34.5 85zM1884 92q0 53 35 86t100 33q66 0 99.5 -33t33.5 -86t-33.5 -86t-99.5 -33 t-100.5 34t-34.5 85z" />
<glyph unicode="&#x202f;" horiz-adv-x="404" />
<glyph unicode="&#x2039;" horiz-adv-x="446" d="M63 641v168l318 291v-168l-221 -207l221 -211v-164z" />
<glyph unicode="&#x203a;" horiz-adv-x="446" d="M63 350v164l224 211l-224 207v168l318 -291v-168z" />
<glyph unicode="&#x205f;" horiz-adv-x="505" />
<glyph unicode="&#x20ac;" horiz-adv-x="1103" d="M20 477l23 107h86v186h-109l23 107h100q39 246 180.5 370.5t421.5 124.5q86 0 165 -21.5t149 -62.5l-66 -129q-51 29 -109.5 46.5t-123.5 17.5q-90 0 -153.5 -15.5t-105.5 -54.5t-64.5 -105.5t-30.5 -170.5h446l-57 -107h-398v-186h308l-56 -107h-248q6 -102 24.5 -171.5 t54.5 -111.5t91.5 -60.5t137.5 -18.5q98 0 157.5 25.5t112.5 78.5l90 -100q-37 -37 -75 -64.5t-86 -46t-107.5 -28t-136.5 -9.5q-133 0 -228.5 29t-159 90.5t-98.5 156.5t-45 230h-113z" />
<glyph unicode="&#x2122;" horiz-adv-x="1335" d="M51 1382v187h473v-187h-49q-2 37 -5 74t-24 37h-90v-743h-135v743h-90q-20 0 -23.5 -37t-5.5 -74h-51zM641 750v819h164l139 -492l156 492h141v-819h-133v610l-193 -629l-186 633v-614h-88z" />
<glyph unicode="&#xe000;" horiz-adv-x="1259" d="M0 0v1260h1260v-1260h-1260z" />
<glyph unicode="&#xfb01;" horiz-adv-x="1112" d="M20 1137v127h109q0 113 34 184.5t89 111t127 54t149 14.5q55 0 112.5 -13t86.5 -42l-45 -109q-57 47 -145 47q-78 0 -121 -55t-45 -192h260v-127h-260v-1137h-242v1137h-109zM766 1522q0 53 35 84.5t100 31.5q63 0 97 -31.5t34 -84.5t-33.5 -85t-97.5 -32 q-66 0 -100.5 32.5t-34.5 84.5zM774 0v1223l242 59v-1282h-242z" />
<glyph unicode="&#xfb02;" horiz-adv-x="1097" d="M20 1137v127h109q0 113 34 184.5t89 111t127 54t149 14.5q55 0 112.5 -13t86.5 -42l-45 -109q-57 47 -145 47q-78 0 -121 -55t-45 -192h260v-127h-260v-1137h-242v1137h-109zM764 0v1569l242 59v-1628h-242z" />
</font>
</defs>
</svg>
