<?xml version="1.0" encoding="UTF-8" standalone="no"?>
<!-- Created with Inkscape (http://www.inkscape.org/) -->

<svg
   xmlns:dc="http://purl.org/dc/elements/1.1/"
   xmlns:cc="http://creativecommons.org/ns#"
   xmlns:rdf="http://www.w3.org/1999/02/22-rdf-syntax-ns#"
   xmlns:svg="http://www.w3.org/2000/svg"
   xmlns="http://www.w3.org/2000/svg"
   xmlns:xlink="http://www.w3.org/1999/xlink"
   xmlns:sodipodi="http://sodipodi.sourceforge.net/DTD/sodipodi-0.dtd"
   xmlns:inkscape="http://www.inkscape.org/namespaces/inkscape"
   width="338.94577"
   height="254.24393"
   id="svg9721"
   version="1.1"
   inkscape:version="0.48.3.1 r9886"
   sodipodi:docname="garta.svg">
  <defs
     id="defs9723">
    <linearGradient
       inkscape:collect="always"
       xlink:href="#linearGradient9664"
       id="linearGradient9695"
       gradientUnits="userSpaceOnUse"
       gradientTransform="matrix(0.58094092,0,0,0.60636516,145.4155,294.12442)"
       x1="186.7299"
       y1="-292.42853"
       x2="558.45514"
       y2="-292.42853" />
    <linearGradient
       id="linearGradient9664">
      <stop
         style="stop-color:#66c750;stop-opacity:1;"
         offset="0"
         id="stop9666" />
      <stop
         style="stop-color:#379721;stop-opacity:1;"
         offset="1"
         id="stop9668" />
    </linearGradient>
  </defs>
  <sodipodi:namedview
     id="base"
     pagecolor="#ffffff"
     bordercolor="#666666"
     borderopacity="1.0"
     inkscape:pageopacity="0.0"
     inkscape:pageshadow="2"
     inkscape:zoom="0.35"
     inkscape:cx="247.33003"
     inkscape:cy="-184.30662"
     inkscape:document-units="px"
     inkscape:current-layer="layer1"
     showgrid="false"
     fit-margin-top="0"
     fit-margin-left="0"
     fit-margin-right="0"
     fit-margin-bottom="0"
     inkscape:window-width="934"
     inkscape:window-height="451"
     inkscape:window-x="504"
     inkscape:window-y="19"
     inkscape:window-maximized="0" />
  <metadata
     id="metadata9726">
    <rdf:RDF>
      <cc:Work
         rdf:about="">
        <dc:format>image/svg+xml</dc:format>
        <dc:type
           rdf:resource="http://purl.org/dc/dcmitype/StillImage" />
        <dc:title></dc:title>
      </cc:Work>
    </rdf:RDF>
  </metadata>
  <g
     inkscape:label="Layer 1"
     inkscape:groupmode="layer"
     id="layer1"
     transform="translate(-127.66996,-93.811649)">
    <g
       transform="translate(-126.19578,72.034061)"
       id="g9697">
      <path
         d="m 468.41619,153.05149 -3.09374,1.43467 -3.30333,0.78697 -1.94304,2.8958 -1.31231,3.26189 -3.48152,-1.10655 -3.58316,0.60703 -3.85235,1.4683 -0.61341,4.2377 -3.26688,-2.30352 -3.43066,1.9841 -3.453,0.46739 -2.68908,2.29719 -2.91479,-1.65701 -3.24344,-0.71352 -1.91285,-3.4932 -3.83938,0.1851 -3.05262,1.3631 -3.30662,0.36507 -3.13164,1.10151 -2.82026,1.7927 -0.0879,3.67263 0.0153,3.67436 -2.40206,2.67046 -2.43014,2.64259 -3.38348,-0.13969 -3.37663,0.23359 -3.45879,1.77025 -0.39335,4.00744 -2.53675,1.85729 -2.83356,1.31313 -3.11697,-0.38666 -3.05837,0.70911 -2.42211,-3.12192 -3.78425,-0.68708 -2.94779,2.91734 -3.97354,-0.96119 -3.69971,-1.64933 -3.00127,-2.80166 -1.93959,4.34745 -4.59408,0.28872 -2.72368,3.02516 -1.72136,3.74557 -4.04042,-0.77284 -3.7993,1.59561 0.57199,3.85065 -0.51402,3.85294 -2.77496,2.81115 -0.66139,3.98513 -3.11375,-2.52915 0.12736,-4.10417 -3.4997,0.1786 -3.50424,-0.0942 -3.46992,-1.77869 -0.41578,-4.00545 -3.32212,0.91037 -3.41145,-0.4794 -2.27154,-3.22026 0.89624,-3.87136 -3.65039,0.2686 -3.04762,-2.13625 -3.14667,-2.21112 -3.72756,0.6502 -2.01497,-3.32754 0.61574,-3.86964 -3.14062,1.82972 -3.16601,-1.82019 -2.07714,2.58543 -2.97577,1.32396 -2.79683,-1.20194 -2.97143,-0.57164 -2.11707,-2.81094 -3.40098,0.30753 0.37619,-4.1312 -3.3952,-2.18314 -3.12503,-1.36691 -3.28053,-0.87515 -0.71602,-3.91864 2.90462,-2.56792 0.54793,-3.84767 -2.73133,-2.66736 -1.33227,-2.69784 1.0349,-2.82248 1.5905,-2.23248 0.94637,-2.60351 -0.36451,-3.07583 -2.70138,-1.29646 -0.77558,-2.58385 -0.61232,-2.6303 -2.53163,-1.32659 -0.28842,-2.9367 0.55815,-2.67671 -1.1916,-2.45161 -1.10911,-2.3593 0.23541,-2.60909 -2.39967,-1.72159 0.58382,-2.96604 1.29888,-1.68715 -0.6856,-2.05347 -1.99468,-0.91223 -0.0122,-2.26865 1.98627,0.32037 1.43097,-1.46209 1.39089,-1.29067 0.54152,-1.86126 0.73424,-1.54219 1.51586,-0.68025 0.0637,-1.63026 0.41213,-1.57176 0.0307,-1.56191 0.44102,-1.49037 -0.70221,-1.490663 0.43077,-1.59255 -1.63734,1.32576 -1.85618,-0.98639 -1.67594,-0.964242 -1.81869,0.594312 0.92138,-2.1212 -1.0687,-2.056785 -2.36337,0.105386 -1.12362,-2.180756 -2.08679,0.221051 -1.0131,-1.925046 -0.25397,-1.926883 -1.3873,-1.304437 0.75478,-1.819708 1.18562,-1.54745 -0.14764,-2.097793 -1.42753,-1.491822 -0.0193,0.02207 0.002,0.02989 -0.0296,0.0036 -0.0136,0.02759 0.0139,0.02371 0.006,0.02698 0.006,0.02923 -0.0163,0.02437 -0.0251,0.01589 -0.0272,-0.01201 -0.0238,-0.0117 -0.0251,-0.0084 -0.03,0.0066 -0.0306,0.0012 -0.008,0.0308 -0.0101,0.03001 0.008,0.02395 0.0224,0.0095 0.002,0.02298 0.007,0.02201 -0.004,0.02711 0.021,0.01655 0.007,0.02735 -0.0215,0.0168 -0.0138,0.01983 -0.002,0.0245 0.0115,0.02062 0.012,0.02031 -5.8e-4,0.02189 -0.005,0.02141 0.01,0.01977 0.002,0.02225 m 1.90912,0.984349 3.09375,-1.434666 3.30333,-0.786971 1.94304,-2.8958 1.31232,-3.261887 3.48151,1.106562 3.58316,-0.607045 3.85235,-1.468301 0.61342,-4.237704 3.26688,2.303521 3.43065,-1.984088 3.453,-0.467392 2.68908,-2.29719 2.91478,1.657008 3.24345,0.713504 1.91285,3.493215 3.83939,-0.185105 3.0526,-1.363091 3.30663,-0.365074 3.13164,-1.101505 2.82025,-1.792707 0.0879,-3.67262 -0.0153,-3.674367 2.40205,-2.670462 2.43015,-2.642594 3.38347,0.139688 3.37664,-0.233584 3.4588,-1.770252 0.39333,-4.007431 2.53676,-1.857297 2.83356,-1.313126 3.11696,0.386661 3.05838,-0.709114 2.42211,3.121932 3.78424,0.687072 2.9478,-2.917344 3.97353,0.961192 3.69971,1.649325 3.00127,2.801662 1.93959,-4.347444 4.59409,-0.288733 2.72367,-3.02515 1.72137,-3.745578 4.04041,0.772849 3.7993,-1.59562 -0.57199,-3.850643 0.51403,-3.852947 2.77495,-2.81114 0.66139,-3.985147 3.11376,2.529156 -0.12736,4.10417 3.4997,-0.178599 3.50423,0.09422 3.46992,1.778675 0.41578,4.005449 3.32212,-0.910373 3.41146,0.479405 2.27154,3.220259 -0.89625,3.871363 3.65039,-0.268602 3.04763,2.136249 3.14667,2.211117 3.72755,-0.650187 2.01498,3.327538 -0.61575,3.869628 3.14062,-1.829713 3.16601,1.820187 2.07715,-2.585432 2.97576,-1.32395 2.79684,1.201931 2.97142,0.571645 2.11708,2.810945 3.40097,-0.307536 -0.37618,4.131208 3.39519,2.183139 3.12504,1.366899 3.28052,0.875154 0.71602,3.918629 -2.90462,2.567932 -0.54793,3.84766 2.73133,2.66737 1.33228,2.69784 -1.0349,2.822472 -1.5905,2.232491 -0.94637,2.603502 0.3645,3.075842 2.70139,1.296451 0.77557,2.583855 0.61232,2.630309 2.53164,1.326584 0.28841,2.9367 -0.55814,2.676703 1.19159,2.45162 1.10912,2.35928 -0.23542,2.60911 2.39967,1.72158 -0.58382,2.96604 -1.29886,1.68716 0.68558,2.05346 1.99468,0.91222 0.0122,2.26865 -1.98627,-0.32035 -1.43096,1.46209 -1.3909,1.29065 -0.54152,1.86126 -0.73424,1.5422 -1.51585,0.68024 -0.0637,1.63027 -0.41212,1.57176 -0.0307,1.56191 -0.44102,1.49037 0.70222,1.49066 -0.4307,1.59258 1.63734,-1.32576 1.85618,0.98638 1.67593,0.96424 1.8187,-0.59431 -0.92137,2.1212 1.06869,2.05679 2.36337,-0.10538 1.12362,2.18074 2.08679,-0.22104 1.0131,1.92505 0.25397,1.92687 1.38729,1.30444 -0.75478,1.81972 -1.18562,1.54745 0.14765,2.09778 1.42752,1.49182 0.0193,-0.0221 -0.002,-0.0299 0.0296,-0.004 0.0137,-0.0276 -0.0139,-0.0237 -0.006,-0.027 -0.006,-0.0292 0.0163,-0.0243 0.0252,-0.0159 0.0272,0.012 0.0238,0.0117 0.0251,0.008 0.03,-0.006 0.0306,-0.001 0.008,-0.0308 0.0101,-0.03 -0.008,-0.0239 -0.0224,-0.009 -0.002,-0.023 -0.007,-0.022 0.004,-0.0271 -0.021,-0.0165 -0.007,-0.0274 0.0215,-0.0168 0.0138,-0.0198 0.002,-0.0244 -0.0115,-0.0206 -0.012,-0.0203 5.8e-4,-0.0219 0.005,-0.0214 -0.01,-0.0197 -0.002,-0.0223"
         style="fill:url(#linearGradient9695);fill-opacity:1;stroke:#000000;stroke-width:2.71579313;stroke-linecap:butt;stroke-linejoin:miter;stroke-miterlimit:4;stroke-opacity:1;stroke-dasharray:none"
         id="path8751"
         inkscape:connector-curvature="0" />
      <path
         style="fill:#bf8a3c;fill-opacity:1;stroke:#000000;stroke-width:2.71579313;stroke-linecap:butt;stroke-linejoin:miter;stroke-miterlimit:4;stroke-opacity:1;stroke-dasharray:none"
         d="m 401.49738,48.937167 c 2.07214,3.81931 5.29875,7.415064 4.42112,12.301792 -0.99688,5.064968 -1.0952,10.430023 -2.16272,15.466923 -2.03524,5.196232 -6.57315,8.593011 -9.74176,12.639408 -2.38546,0.798244 -3.16146,-2.43421 -3.17707,-4.346781 -1.33469,-3.92479 -1.40126,-9.453007 -4.80392,-11.816472 -3.06339,-0.808281 -3.42499,3.576836 -2.5072,5.802734 0.23064,5.06394 2.42829,9.61513 4.0192,14.179767 0.83038,3.426998 1.34286,7.298242 -0.80384,10.255022 -2.19855,4.88704 -2.12573,10.57807 -2.43066,15.74122 -2.76477,6.85356 -7.70951,11.7319 -13.05037,16.14498 -2.5263,1.75257 -4.86144,5.08598 -7.75376,5.48339 1.45847,-7.92987 -3.08568,-16.00072 -0.86125,-23.73847 3.34985,-6.74009 7.74208,-13.26009 8.99534,-21.058628 0.14138,-2.448312 2.71062,-6.383675 0.15311,-8.123829 -3.81828,0.918585 -5.14387,6.217334 -6.20364,9.8471 -1.45619,4.572877 -2.6838,10.807707 -7.40421,12.540897 -2.75659,0.41149 -3.00179,-3.91782 -5.11632,-5.14706 -5.109,-4.92165 -8.0243,-11.884326 -10.21403,-18.844594 -1.00857,-8.615356 -7.43882,-15.155248 -14.69879,-17.471504 -2.23979,-2.059601 -6.44314,-3.773729 -8.30048,-0.07579 0.49133,2.62011 4.40586,4.117265 6.78591,5.463735 5.9836,2.149471 8.66689,8.955333 11.25634,14.678958 0.68293,1.56434 1.00674,4.547635 -0.1531,5.549526 -1.79442,-1.076713 -6.36696,-1.757982 -5.70344,1.83577 2.46484,4.724319 8.53297,3.644954 11.98102,7.195379 3.44628,3.20049 5.29,8.15018 9.18674,10.90914 4.47153,7.58091 4.54086,16.8301 5.32065,25.55313 0.43653,7.8144 -2.09906,15.18123 -4.7088,22.25683 -3.36889,11.83538 -8.4868,23.17596 -11.52109,35.09526 -5.82213,-12.24278 -12.44368,-24.04611 -18.60314,-35.93473 -2.2348,-4.1762 1.5569,-7.67452 1.83734,-11.77428 0.996,-5.56498 -0.36559,-11.48821 2.46893,-16.52196 0.85468,-2.57504 4.33908,-6.30444 1.24405,-8.58804 -2.41926,-1.62427 -4.46561,1.46954 -4.84218,3.88255 -0.79294,1.88666 -2.03989,-1.49023 -2.25841,-2.34219 -0.5258,-2.92918 -2.02576,-5.9563 -4.93786,-6.52016 -2.9491,4.1606 0.4244,8.65588 1.8182,12.555 1.18938,3.85845 2.54923,8.23059 0.63159,12.11188 -1.04828,3.5219 -0.90781,8.02071 -2.0096,11.12015 -4.85056,-4.00897 -11.87134,-3.82268 -15.77057,-9.34767 -1.53468,-2.25681 -4.79557,-6.00515 -7.27282,-2.91192 -1.19735,1.2802 1.25416,3.30834 -0.8804,3.41834 -2.52222,1.42958 -1.36014,5.61647 1.39715,5.63393 4.09514,1.19199 8.78808,1.80002 11.426,5.90823 3.02992,3.05001 7.39451,4.06542 11.25376,3.94586 2.45119,3.31864 3.14841,7.83337 5.85782,11.02076 6.296,11.83106 14.16672,23.32166 16.42,37.08916 0.71776,8.50849 -0.55993,17.13196 -0.0383,25.74303 0.26072,12.12072 0.15439,24.32944 0.42107,36.39896 0.0541,2.80619 3.5931,3.59122 4.13403,0.69634 1.71352,-6.35939 0.33186,-13.24738 0.72594,-19.8135 -0.30044,-15.6177 -0.3489,-31.35182 0.6639,-46.87921 2.05461,-15.07857 8.87634,-28.73049 12.92616,-43.2216 2.73775,-7.29182 4.8358,-16.58568 12.30639,-19.47607 7.16806,-4.37534 11.33176,-14.43061 20.00028,-15.84674 4.66801,0.74139 9.51394,3.0825 14.316,1.43486 4.02579,-2.40238 9.03653,-1.96125 13.01454,0.35871 4.62285,4.30194 11.91372,3.25086 15.57917,9.13666 4.12986,5.84122 5.55821,13.75764 10.89011,18.61095 2.3046,-7.89063 -2.1141,-15.18706 -5.99052,-21.29075 -0.49322,-1.25918 -0.58043,-2.25553 1.01437,-1.85688 4.38632,-1.10408 8.13422,-3.99831 12.19156,-6.05594 -5.54413,0.36446 -11.99793,-2.73075 -16.88062,1.22385 -5.12119,0.80984 -8.74814,-3.82583 -13.51215,-4.7477 -2.1978,-0.14798 -2.6235,-3.07791 -0.93782,-4.26236 3.79112,-2.8096 8.64209,-5.43783 9.81833,-10.82474 -4.73142,-1.62418 -8.42676,2.82818 -11.94844,5.46143 -4.11418,4.20454 -9.30325,8.16166 -15.22898,6.90367 -3.82973,0.30193 -7.64777,0.0144 -11.46429,-0.21101 -2.01821,-1.22474 -2.59643,-4.05792 -1.05265,-5.99264 1.20026,-5.14857 2.42099,-10.24254 2.62205,-15.551332 1.78832,-4.355839 5.2095,-7.419398 8.38289,-10.59261 2.82898,-4.848155 7.23925,-8.864553 12.72746,-8.630251 2.59601,0.264332 6.51082,-2.436145 4.17231,-5.380717 -2.73486,-2.631488 -6.76274,1.355121 -9.47382,-0.548624 2.631,-7.94721 2.66493,-17.042163 -0.32537,-24.920096 -0.74489,1.206934 -1.91513,-1.652638 -3.15793,-1.603662 -1.98722,-0.856471 -5.7565,-2.654948 -6.02039,-2.163793 0.51395,0.946339 1.02791,1.892685 1.54186,2.839018 z"
         id="path5086"
         inkscape:connector-curvature="0" />
    </g>
    <text
       xml:space="preserve"
       style="font-size:40px;font-style:normal;font-weight:normal;line-height:125%;letter-spacing:0px;word-spacing:0px;fill:#000000;fill-opacity:1;stroke:none;font-family:Sans"
       x="372.78369"
       y="292.57455"
       id="text3835-3"
       sodipodi:linespacing="125%"><tspan
         sodipodi:role="line"
         id="tspan3837-8"
         x="372.78369"
         y="292.57455"
         style="font-size:36px;font-style:normal;font-variant:normal;font-weight:normal;font-stretch:normal;text-align:center;text-anchor:middle;font-family:Dream Orphanage;-inkscape-font-specification:Dream Orphanage">&lt; retour à la</tspan><tspan
         sodipodi:role="line"
         x="372.78369"
         y="337.57455"
         id="tspan3839-8"
         style="font-size:36px;font-style:normal;font-variant:normal;font-weight:normal;font-stretch:normal;text-align:center;text-anchor:middle;font-family:Dream Orphanage;-inkscape-font-specification:Dream Orphanage">gallerie</tspan></text>
  </g>
</svg>
